<svg width="622" height="502" viewBox="0 0 622 502" fill="none" xmlns="http://www.w3.org/2000/svg">
<path fill-rule="evenodd" clip-rule="evenodd" d="M621.995 48.6003C622.1 22.8568 620.462 6.30757 616.997 2.40951C614.002 -0.957907 610.197 -0.928764 604.111 3.34142C591.701 11.0269 571.563 34.8659 546.624 71.7242C526.419 101.586 511.555 114.344 481.438 114.79C465.042 114.619 444.19 110.654 415.456 103.776C365.371 91.7872 339.61 86.2415 311 87.1478C282.39 86.2415 256.629 91.7872 206.544 103.776C177.809 110.654 156.958 114.619 140.562 114.79C110.445 114.344 95.5809 101.586 75.3758 71.7242C50.4369 34.866 30.2989 11.027 17.8888 3.34146C11.8033 -0.928763 7.99779 -0.957919 5.0034 2.40951C1.53795 6.3076 -0.0999703 22.8571 0.00472834 48.6009C-0.0947243 70.8506 1.37465 100.803 4.41632 138.358C5.86425 156.239 7.27648 171.752 8.79325 185.391C9.09794 188.393 9.41036 191.418 9.7305 194.464C14.3367 238.297 17.3138 249.715 30.4074 273.762C31.1344 275.097 31.985 276.568 32.9367 278.142C36.7627 284.811 41.1717 291.264 46.3066 298.006C51.7984 305.568 57.5719 312.941 62.2149 318.16C64.9057 321.629 66.9257 324.31 67.6741 325.43C67.8626 325.712 68.0408 325.98 68.2095 326.233C68.2547 327.296 68.5429 327.628 68.9841 327.367C69.6701 328.332 70.1691 328.869 70.598 328.818C71.5975 328.699 72.2162 325.385 73.9341 316.847C74.1056 315.995 74.2913 315.135 74.491 314.268C86.28 278.198 111.382 240.712 137.166 218.767C147.704 210.758 157.697 205.606 170.869 201.11C181.525 197.472 207.491 196.93 224.76 199.467C227.214 199.96 229.514 200.543 231.611 201.219C249.835 207.092 275.368 221.617 295.13 237.123C296.528 238.283 297.924 239.464 299.318 240.666C304.849 245.435 310.014 249.337 310.797 249.337C310.848 249.337 310.916 249.322 311 249.294C311.084 249.322 311.152 249.337 311.203 249.337C311.986 249.337 317.151 245.435 322.682 240.666C324.076 239.464 325.472 238.283 326.87 237.123C346.631 221.617 372.165 207.093 390.389 201.219C392.486 200.543 394.786 199.96 397.24 199.467C414.509 196.93 440.475 197.472 451.131 201.11C464.303 205.606 474.296 210.758 484.834 218.767C510.618 240.712 535.72 278.198 547.509 314.268C547.709 315.135 547.894 315.995 548.066 316.847C549.784 325.385 550.402 328.699 551.402 328.818C551.831 328.869 552.33 328.332 553.016 327.367C553.457 327.628 553.745 327.296 553.791 326.233C553.959 325.98 554.137 325.712 554.326 325.43C555.074 324.31 557.094 321.629 559.785 318.16C564.428 312.941 570.202 305.568 575.693 298.006C580.828 291.264 585.237 284.811 589.063 278.142C590.015 276.568 590.866 275.097 591.593 273.762C604.686 249.715 607.663 238.297 612.269 194.464C612.59 191.418 612.902 188.394 613.207 185.392C614.723 171.753 616.136 156.24 617.584 138.358C620.625 100.802 622.095 70.8501 621.995 48.6003ZM77.3379 205.252C66.3718 179.217 60.9318 158.279 59.1781 135.364C58.8312 130.831 58.5613 126.726 58.4195 123.97C58.4775 123.703 58.5552 123.561 58.6541 123.561C59.029 123.561 60.7469 125.968 62.471 128.909C63.3963 130.488 64.8245 132.263 66.6301 134.124C74.3701 143.546 87.1087 151.556 100.573 155.009C104.642 156.052 115.602 157.258 124.93 157.688C135.466 158.175 140.358 158.589 141.335 159.394C140.048 160.441 136.988 162.569 133.347 164.923C120.531 173.205 98.629 195.611 90.3279 208.928C87.6597 213.21 85.1932 216.935 83.9005 218.674C82.4889 216.855 80.4114 212.549 77.3379 205.252ZM555.37 134.124C557.176 132.263 558.604 130.488 559.529 128.909C561.253 125.968 562.971 123.561 563.346 123.561C563.445 123.561 563.522 123.703 563.581 123.97C563.439 126.726 563.169 130.831 562.822 135.364C561.068 158.279 555.628 179.217 544.662 205.252C541.589 212.549 539.511 216.855 538.1 218.674C536.807 216.935 534.34 213.21 531.672 208.928C523.371 195.611 501.469 173.205 488.653 164.923C485.012 162.569 481.952 160.441 480.665 159.394C481.642 158.589 486.534 158.175 497.07 157.688C506.398 157.258 517.358 156.052 521.427 155.009C534.891 151.556 547.63 143.546 555.37 134.124Z" fill="url(#paint0_linear_9_2438)"/>
<path fill-rule="evenodd" clip-rule="evenodd" d="M621.995 48.6003C622.1 22.8568 620.462 6.30757 616.997 2.40951C614.002 -0.957907 610.197 -0.928764 604.111 3.34142C591.701 11.0269 571.563 34.8659 546.624 71.7242C526.419 101.586 511.555 114.344 481.438 114.79C465.042 114.619 444.19 110.654 415.456 103.776C365.371 91.7872 339.61 86.2415 311 87.1478C282.39 86.2415 256.629 91.7872 206.544 103.776C177.809 110.654 156.958 114.619 140.562 114.79C110.445 114.344 95.5809 101.586 75.3758 71.7242C50.4369 34.866 30.2989 11.027 17.8888 3.34146C11.8033 -0.928763 7.99779 -0.957919 5.0034 2.40951C1.53795 6.3076 -0.0999703 22.8571 0.00472834 48.6009C-0.0947243 70.8506 1.37465 100.803 4.41632 138.358C5.86425 156.239 7.27648 171.752 8.79325 185.391C9.09794 188.393 9.41036 191.418 9.7305 194.464C14.3367 238.297 17.3138 249.715 30.4074 273.762C31.1344 275.097 31.985 276.568 32.9367 278.142C36.7627 284.811 41.1717 291.264 46.3066 298.006C51.7984 305.568 57.5719 312.941 62.2149 318.16C64.9057 321.629 66.9257 324.31 67.6741 325.43C67.8626 325.712 68.0408 325.98 68.2095 326.233C68.2547 327.296 68.5429 327.628 68.9841 327.367C69.6701 328.332 70.1691 328.869 70.598 328.818C71.5975 328.699 72.2162 325.385 73.9341 316.847C74.1056 315.995 74.2913 315.135 74.491 314.268C86.28 278.198 111.382 240.712 137.166 218.767C147.704 210.758 157.697 205.606 170.869 201.11C181.525 197.472 207.491 196.93 224.76 199.467C227.214 199.96 229.514 200.543 231.611 201.219C249.835 207.092 275.368 221.617 295.13 237.123C296.528 238.283 297.924 239.464 299.318 240.666C304.849 245.435 310.014 249.337 310.797 249.337C310.848 249.337 310.916 249.322 311 249.294C311.084 249.322 311.152 249.337 311.203 249.337C311.986 249.337 317.151 245.435 322.682 240.666C324.076 239.464 325.472 238.283 326.87 237.123C346.631 221.617 372.165 207.093 390.389 201.219C392.486 200.543 394.786 199.96 397.24 199.467C414.509 196.93 440.475 197.472 451.131 201.11C464.303 205.606 474.296 210.758 484.834 218.767C510.618 240.712 535.72 278.198 547.509 314.268C547.709 315.135 547.894 315.995 548.066 316.847C549.784 325.385 550.402 328.699 551.402 328.818C551.831 328.869 552.33 328.332 553.016 327.367C553.457 327.628 553.745 327.296 553.791 326.233C553.959 325.98 554.137 325.712 554.326 325.43C555.074 324.31 557.094 321.629 559.785 318.16C564.428 312.941 570.202 305.568 575.693 298.006C580.828 291.264 585.237 284.811 589.063 278.142C590.015 276.568 590.866 275.097 591.593 273.762C604.686 249.715 607.663 238.297 612.269 194.464C612.59 191.418 612.902 188.394 613.207 185.392C614.723 171.753 616.136 156.24 617.584 138.358C620.625 100.802 622.095 70.8501 621.995 48.6003ZM77.3379 205.252C66.3718 179.217 60.9318 158.279 59.1781 135.364C58.8312 130.831 58.5613 126.726 58.4195 123.97C58.4775 123.703 58.5552 123.561 58.6541 123.561C59.029 123.561 60.7469 125.968 62.471 128.909C63.3963 130.488 64.8245 132.263 66.6301 134.124C74.3701 143.546 87.1087 151.556 100.573 155.009C104.642 156.052 115.602 157.258 124.93 157.688C135.466 158.175 140.358 158.589 141.335 159.394C140.048 160.441 136.988 162.569 133.347 164.923C120.531 173.205 98.629 195.611 90.3279 208.928C87.6597 213.21 85.1932 216.935 83.9005 218.674C82.4889 216.855 80.4114 212.549 77.3379 205.252ZM555.37 134.124C557.176 132.263 558.604 130.488 559.529 128.909C561.253 125.968 562.971 123.561 563.346 123.561C563.445 123.561 563.522 123.703 563.581 123.97C563.439 126.726 563.169 130.831 562.822 135.364C561.068 158.279 555.628 179.217 544.662 205.252C541.589 212.549 539.511 216.855 538.1 218.674C536.807 216.935 534.34 213.21 531.672 208.928C523.371 195.611 501.469 173.205 488.653 164.923C485.012 162.569 481.952 160.441 480.665 159.394C481.642 158.589 486.534 158.175 497.07 157.688C506.398 157.258 517.358 156.052 521.427 155.009C534.891 151.556 547.63 143.546 555.37 134.124Z" fill="url(#paint1_linear_9_2438)" fill-opacity="0.42"/>
<path fill-rule="evenodd" clip-rule="evenodd" d="M621.995 48.6003C622.1 22.8568 620.462 6.30757 616.997 2.40951C614.002 -0.957907 610.197 -0.928764 604.111 3.34142C591.701 11.0269 571.563 34.8659 546.624 71.7242C526.419 101.586 511.555 114.344 481.438 114.79C465.042 114.619 444.19 110.654 415.456 103.776C365.371 91.7872 339.61 86.2415 311 87.1478C282.39 86.2415 256.629 91.7872 206.544 103.776C177.809 110.654 156.958 114.619 140.562 114.79C110.445 114.344 95.5809 101.586 75.3758 71.7242C50.4369 34.866 30.2989 11.027 17.8888 3.34146C11.8033 -0.928763 7.99779 -0.957919 5.0034 2.40951C1.53795 6.3076 -0.0999703 22.8571 0.00472834 48.6009C-0.0947243 70.8506 1.37465 100.803 4.41632 138.358C5.86425 156.239 7.27648 171.752 8.79325 185.391C9.09794 188.393 9.41036 191.418 9.7305 194.464C14.3367 238.297 17.3138 249.715 30.4074 273.762C31.1344 275.097 31.985 276.568 32.9367 278.142C36.7627 284.811 41.1717 291.264 46.3066 298.006C51.7984 305.568 57.5719 312.941 62.2149 318.16C64.9057 321.629 66.9257 324.31 67.6741 325.43C67.8626 325.712 68.0408 325.98 68.2095 326.233C68.2547 327.296 68.5429 327.628 68.9841 327.367C69.6701 328.332 70.1691 328.869 70.598 328.818C71.5975 328.699 72.2162 325.385 73.9341 316.847C74.1056 315.995 74.2913 315.135 74.491 314.268C86.28 278.198 111.382 240.712 137.166 218.767C147.704 210.758 157.697 205.606 170.869 201.11C181.525 197.472 207.491 196.93 224.76 199.467C227.214 199.96 229.514 200.543 231.611 201.219C249.835 207.092 275.368 221.617 295.13 237.123C296.528 238.283 297.924 239.464 299.318 240.666C304.849 245.435 310.014 249.337 310.797 249.337C310.848 249.337 310.916 249.322 311 249.294C311.084 249.322 311.152 249.337 311.203 249.337C311.986 249.337 317.151 245.435 322.682 240.666C324.076 239.464 325.472 238.283 326.87 237.123C346.631 221.617 372.165 207.093 390.389 201.219C392.486 200.543 394.786 199.96 397.24 199.467C414.509 196.93 440.475 197.472 451.131 201.11C464.303 205.606 474.296 210.758 484.834 218.767C510.618 240.712 535.72 278.198 547.509 314.268C547.709 315.135 547.894 315.995 548.066 316.847C549.784 325.385 550.402 328.699 551.402 328.818C551.831 328.869 552.33 328.332 553.016 327.367C553.457 327.628 553.745 327.296 553.791 326.233C553.959 325.98 554.137 325.712 554.326 325.43C555.074 324.31 557.094 321.629 559.785 318.16C564.428 312.941 570.202 305.568 575.693 298.006C580.828 291.264 585.237 284.811 589.063 278.142C590.015 276.568 590.866 275.097 591.593 273.762C604.686 249.715 607.663 238.297 612.269 194.464C612.59 191.418 612.902 188.394 613.207 185.392C614.723 171.753 616.136 156.24 617.584 138.358C620.625 100.802 622.095 70.8501 621.995 48.6003ZM77.3379 205.252C66.3718 179.217 60.9318 158.279 59.1781 135.364C58.8312 130.831 58.5613 126.726 58.4195 123.97C58.4775 123.703 58.5552 123.561 58.6541 123.561C59.029 123.561 60.7469 125.968 62.471 128.909C63.3963 130.488 64.8245 132.263 66.6301 134.124C74.3701 143.546 87.1087 151.556 100.573 155.009C104.642 156.052 115.602 157.258 124.93 157.688C135.466 158.175 140.358 158.589 141.335 159.394C140.048 160.441 136.988 162.569 133.347 164.923C120.531 173.205 98.629 195.611 90.3279 208.928C87.6597 213.21 85.1932 216.935 83.9005 218.674C82.4889 216.855 80.4114 212.549 77.3379 205.252ZM555.37 134.124C557.176 132.263 558.604 130.488 559.529 128.909C561.253 125.968 562.971 123.561 563.346 123.561C563.445 123.561 563.522 123.703 563.581 123.97C563.439 126.726 563.169 130.831 562.822 135.364C561.068 158.279 555.628 179.217 544.662 205.252C541.589 212.549 539.511 216.855 538.1 218.674C536.807 216.935 534.34 213.21 531.672 208.928C523.371 195.611 501.469 173.205 488.653 164.923C485.012 162.569 481.952 160.441 480.665 159.394C481.642 158.589 486.534 158.175 497.07 157.688C506.398 157.258 517.358 156.052 521.427 155.009C534.891 151.556 547.63 143.546 555.37 134.124Z" fill="url(#paint2_linear_9_2438)" fill-opacity="0.5"/>
<path fill-rule="evenodd" clip-rule="evenodd" d="M621.995 48.6003C622.1 22.8568 620.462 6.30757 616.997 2.40951C614.002 -0.957907 610.197 -0.928764 604.111 3.34142C591.701 11.0269 571.563 34.8659 546.624 71.7242C526.419 101.586 511.555 114.344 481.438 114.79C465.042 114.619 444.19 110.654 415.456 103.776C365.371 91.7872 339.61 86.2415 311 87.1478C282.39 86.2415 256.629 91.7872 206.544 103.776C177.809 110.654 156.958 114.619 140.562 114.79C110.445 114.344 95.5809 101.586 75.3758 71.7242C50.4369 34.866 30.2989 11.027 17.8888 3.34146C11.8033 -0.928763 7.99779 -0.957919 5.0034 2.40951C1.53795 6.3076 -0.0999703 22.8571 0.00472834 48.6009C-0.0947243 70.8506 1.37465 100.803 4.41632 138.358C5.86425 156.239 7.27648 171.752 8.79325 185.391C9.09794 188.393 9.41036 191.418 9.7305 194.464C14.3367 238.297 17.3138 249.715 30.4074 273.762C31.1344 275.097 31.985 276.568 32.9367 278.142C36.7627 284.811 41.1717 291.264 46.3066 298.006C51.7984 305.568 57.5719 312.941 62.2149 318.16C64.9057 321.629 66.9257 324.31 67.6741 325.43C67.8626 325.712 68.0408 325.98 68.2095 326.233C68.2547 327.296 68.5429 327.628 68.9841 327.367C69.6701 328.332 70.1691 328.869 70.598 328.818C71.5975 328.699 72.2162 325.385 73.9341 316.847C74.1056 315.995 74.2913 315.135 74.491 314.268C86.28 278.198 111.382 240.712 137.166 218.767C147.704 210.758 157.697 205.606 170.869 201.11C181.525 197.472 207.491 196.93 224.76 199.467C227.214 199.96 229.514 200.543 231.611 201.219C249.835 207.092 275.368 221.617 295.13 237.123C296.528 238.283 297.924 239.464 299.318 240.666C304.849 245.435 310.014 249.337 310.797 249.337C310.848 249.337 310.916 249.322 311 249.294C311.084 249.322 311.152 249.337 311.203 249.337C311.986 249.337 317.151 245.435 322.682 240.666C324.076 239.464 325.472 238.283 326.87 237.123C346.631 221.617 372.165 207.093 390.389 201.219C392.486 200.543 394.786 199.96 397.24 199.467C414.509 196.93 440.475 197.472 451.131 201.11C464.303 205.606 474.296 210.758 484.834 218.767C510.618 240.712 535.72 278.198 547.509 314.268C547.709 315.135 547.894 315.995 548.066 316.847C549.784 325.385 550.402 328.699 551.402 328.818C551.831 328.869 552.33 328.332 553.016 327.367C553.457 327.628 553.745 327.296 553.791 326.233C553.959 325.98 554.137 325.712 554.326 325.43C555.074 324.31 557.094 321.629 559.785 318.16C564.428 312.941 570.202 305.568 575.693 298.006C580.828 291.264 585.237 284.811 589.063 278.142C590.015 276.568 590.866 275.097 591.593 273.762C604.686 249.715 607.663 238.297 612.269 194.464C612.59 191.418 612.902 188.394 613.207 185.392C614.723 171.753 616.136 156.24 617.584 138.358C620.625 100.802 622.095 70.8501 621.995 48.6003ZM77.3379 205.252C66.3718 179.217 60.9318 158.279 59.1781 135.364C58.8312 130.831 58.5613 126.726 58.4195 123.97C58.4775 123.703 58.5552 123.561 58.6541 123.561C59.029 123.561 60.7469 125.968 62.471 128.909C63.3963 130.488 64.8245 132.263 66.6301 134.124C74.3701 143.546 87.1087 151.556 100.573 155.009C104.642 156.052 115.602 157.258 124.93 157.688C135.466 158.175 140.358 158.589 141.335 159.394C140.048 160.441 136.988 162.569 133.347 164.923C120.531 173.205 98.629 195.611 90.3279 208.928C87.6597 213.21 85.1932 216.935 83.9005 218.674C82.4889 216.855 80.4114 212.549 77.3379 205.252ZM555.37 134.124C557.176 132.263 558.604 130.488 559.529 128.909C561.253 125.968 562.971 123.561 563.346 123.561C563.445 123.561 563.522 123.703 563.581 123.97C563.439 126.726 563.169 130.831 562.822 135.364C561.068 158.279 555.628 179.217 544.662 205.252C541.589 212.549 539.511 216.855 538.1 218.674C536.807 216.935 534.34 213.21 531.672 208.928C523.371 195.611 501.469 173.205 488.653 164.923C485.012 162.569 481.952 160.441 480.665 159.394C481.642 158.589 486.534 158.175 497.07 157.688C506.398 157.258 517.358 156.052 521.427 155.009C534.891 151.556 547.63 143.546 555.37 134.124Z" fill="url(#paint3_linear_9_2438)" fill-opacity="0.36"/>
<path fill-rule="evenodd" clip-rule="evenodd" d="M491.734 338.461C503.341 300.738 487.06 261.417 453.902 252.546C449.324 251.322 441.926 250.716 434.372 250.74C426.302 250.117 418.154 250.698 410.515 252.545C387.119 258.204 350.596 284.94 342.375 302.429C334.41 319.368 335.689 347.889 345.176 364.948C357.602 387.292 381.29 400.246 406.087 402.16C414.265 402.93 422.304 402.361 430.032 400.523C442.005 397.898 453.461 392.501 463.209 384.137C477.779 371.637 487.278 355.332 491.734 338.461ZM399.856 360.986C377.396 348.575 377.552 316.756 400.124 306.636C403.286 305.218 406.39 304.238 409.408 303.687C414.815 303.51 420.438 304.796 425.965 307.6C450.812 320.206 444.818 357.981 417.027 363.94C414.759 364.427 412.543 364.66 410.395 364.668C406.91 364.117 403.363 362.924 399.856 360.986Z" fill="url(#paint4_linear_9_2438)"/>
<path fill-rule="evenodd" clip-rule="evenodd" d="M491.734 338.461C503.341 300.738 487.06 261.417 453.902 252.546C449.324 251.322 441.926 250.716 434.372 250.74C426.302 250.117 418.154 250.698 410.515 252.545C387.119 258.204 350.596 284.94 342.375 302.429C334.41 319.368 335.689 347.889 345.176 364.948C357.602 387.292 381.29 400.246 406.087 402.16C414.265 402.93 422.304 402.361 430.032 400.523C442.005 397.898 453.461 392.501 463.209 384.137C477.779 371.637 487.278 355.332 491.734 338.461ZM399.856 360.986C377.396 348.575 377.552 316.756 400.124 306.636C403.286 305.218 406.39 304.238 409.408 303.687C414.815 303.51 420.438 304.796 425.965 307.6C450.812 320.206 444.818 357.981 417.027 363.94C414.759 364.427 412.543 364.66 410.395 364.668C406.91 364.117 403.363 362.924 399.856 360.986Z" fill="url(#paint5_linear_9_2438)" fill-opacity="0.42"/>
<path fill-rule="evenodd" clip-rule="evenodd" d="M491.734 338.461C503.341 300.738 487.06 261.417 453.902 252.546C449.324 251.322 441.926 250.716 434.372 250.74C426.302 250.117 418.154 250.698 410.515 252.545C387.119 258.204 350.596 284.94 342.375 302.429C334.41 319.368 335.689 347.889 345.176 364.948C357.602 387.292 381.29 400.246 406.087 402.16C414.265 402.93 422.304 402.361 430.032 400.523C442.005 397.898 453.461 392.501 463.209 384.137C477.779 371.637 487.278 355.332 491.734 338.461ZM399.856 360.986C377.396 348.575 377.552 316.756 400.124 306.636C403.286 305.218 406.39 304.238 409.408 303.687C414.815 303.51 420.438 304.796 425.965 307.6C450.812 320.206 444.818 357.981 417.027 363.94C414.759 364.427 412.543 364.66 410.395 364.668C406.91 364.117 403.363 362.924 399.856 360.986Z" fill="url(#paint6_linear_9_2438)" fill-opacity="0.5"/>
<path fill-rule="evenodd" clip-rule="evenodd" d="M491.734 338.461C503.341 300.738 487.06 261.417 453.902 252.546C449.324 251.322 441.926 250.716 434.372 250.74C426.302 250.117 418.154 250.698 410.515 252.545C387.119 258.204 350.596 284.94 342.375 302.429C334.41 319.368 335.689 347.889 345.176 364.948C357.602 387.292 381.29 400.246 406.087 402.16C414.265 402.93 422.304 402.361 430.032 400.523C442.005 397.898 453.461 392.501 463.209 384.137C477.779 371.637 487.278 355.332 491.734 338.461ZM399.856 360.986C377.396 348.575 377.552 316.756 400.124 306.636C403.286 305.218 406.39 304.238 409.408 303.687C414.815 303.51 420.438 304.796 425.965 307.6C450.812 320.206 444.818 357.981 417.027 363.94C414.759 364.427 412.543 364.66 410.395 364.668C406.91 364.117 403.363 362.924 399.856 360.986Z" fill="url(#paint7_linear_9_2438)" fill-opacity="0.36"/>
<path fill-rule="evenodd" clip-rule="evenodd" d="M279.625 302.429C271.404 284.94 234.881 258.204 211.485 252.545C203.846 250.698 195.698 250.117 187.628 250.74C180.074 250.716 172.676 251.322 168.098 252.546C134.94 261.417 118.659 300.738 130.266 338.461C134.722 355.332 144.221 371.637 158.791 384.137C168.539 392.501 179.995 397.898 191.968 400.523C199.696 402.361 207.735 402.93 215.913 402.16C240.71 400.246 264.398 387.292 276.824 364.948C286.311 347.889 287.59 319.368 279.625 302.429ZM204.973 363.94C177.182 357.981 171.188 320.206 196.035 307.6C201.562 304.796 207.185 303.51 212.592 303.687C215.61 304.238 218.714 305.218 221.876 306.636C244.448 316.756 244.604 348.575 222.144 360.986C218.637 362.924 215.09 364.117 211.605 364.668C209.457 364.66 207.241 364.427 204.973 363.94Z" fill="url(#paint8_linear_9_2438)"/>
<path fill-rule="evenodd" clip-rule="evenodd" d="M279.625 302.429C271.404 284.94 234.881 258.204 211.485 252.545C203.846 250.698 195.698 250.117 187.628 250.74C180.074 250.716 172.676 251.322 168.098 252.546C134.94 261.417 118.659 300.738 130.266 338.461C134.722 355.332 144.221 371.637 158.791 384.137C168.539 392.501 179.995 397.898 191.968 400.523C199.696 402.361 207.735 402.93 215.913 402.16C240.71 400.246 264.398 387.292 276.824 364.948C286.311 347.889 287.59 319.368 279.625 302.429ZM204.973 363.94C177.182 357.981 171.188 320.206 196.035 307.6C201.562 304.796 207.185 303.51 212.592 303.687C215.61 304.238 218.714 305.218 221.876 306.636C244.448 316.756 244.604 348.575 222.144 360.986C218.637 362.924 215.09 364.117 211.605 364.668C209.457 364.66 207.241 364.427 204.973 363.94Z" fill="url(#paint9_linear_9_2438)" fill-opacity="0.42"/>
<path fill-rule="evenodd" clip-rule="evenodd" d="M279.625 302.429C271.404 284.94 234.881 258.204 211.485 252.545C203.846 250.698 195.698 250.117 187.628 250.74C180.074 250.716 172.676 251.322 168.098 252.546C134.94 261.417 118.659 300.738 130.266 338.461C134.722 355.332 144.221 371.637 158.791 384.137C168.539 392.501 179.995 397.898 191.968 400.523C199.696 402.361 207.735 402.93 215.913 402.16C240.71 400.246 264.398 387.292 276.824 364.948C286.311 347.889 287.59 319.368 279.625 302.429ZM204.973 363.94C177.182 357.981 171.188 320.206 196.035 307.6C201.562 304.796 207.185 303.51 212.592 303.687C215.61 304.238 218.714 305.218 221.876 306.636C244.448 316.756 244.604 348.575 222.144 360.986C218.637 362.924 215.09 364.117 211.605 364.668C209.457 364.66 207.241 364.427 204.973 363.94Z" fill="url(#paint10_linear_9_2438)" fill-opacity="0.5"/>
<path fill-rule="evenodd" clip-rule="evenodd" d="M279.625 302.429C271.404 284.94 234.881 258.204 211.485 252.545C203.846 250.698 195.698 250.117 187.628 250.74C180.074 250.716 172.676 251.322 168.098 252.546C134.94 261.417 118.659 300.738 130.266 338.461C134.722 355.332 144.221 371.637 158.791 384.137C168.539 392.501 179.995 397.898 191.968 400.523C199.696 402.361 207.735 402.93 215.913 402.16C240.71 400.246 264.398 387.292 276.824 364.948C286.311 347.889 287.59 319.368 279.625 302.429ZM204.973 363.94C177.182 357.981 171.188 320.206 196.035 307.6C201.562 304.796 207.185 303.51 212.592 303.687C215.61 304.238 218.714 305.218 221.876 306.636C244.448 316.756 244.604 348.575 222.144 360.986C218.637 362.924 215.09 364.117 211.605 364.668C209.457 364.66 207.241 364.427 204.973 363.94Z" fill="url(#paint11_linear_9_2438)" fill-opacity="0.36"/>
<path d="M561.774 365.864C566.599 357.047 573.723 343.823 577.605 336.476L579.02 333.798C579.795 332.352 580.499 331.022 581.112 329.84L584.664 323.119L582.413 323.599C582.168 323.641 581.878 323.702 581.533 323.786L580.638 323.977C578.424 324.449 572.45 326.178 567.363 327.818C563.352 329.112 557.068 330.701 551.841 331.778C551.285 331.843 550.803 331.879 550.409 331.885C542.205 332.007 537.205 333.529 532.739 338.141C529.582 340.438 527.029 343.478 524.649 347.54C520.679 354.315 520.988 354.64 529.854 353.002C541.75 350.803 541.826 351.082 531.924 360.623C523.71 368.539 511.543 381.967 489.769 407.148C474.383 424.942 456.257 450.629 457.916 452.288C457.962 452.334 458.054 452.354 458.188 452.349C458.37 452.686 458.81 452.797 459.465 452.797C461.062 452.797 562.71 402.307 578.217 393.81C582.997 391.191 587.714 388.763 588.699 388.415C592.026 387.238 589.27 386.22 578.603 384.931C574.72 384.157 569.307 383.411 562.956 382.82L553 381.894L561.774 365.864Z" fill="url(#paint12_linear_9_2438)"/>
<path d="M561.774 365.864C566.599 357.047 573.723 343.823 577.605 336.476L579.02 333.798C579.795 332.352 580.499 331.022 581.112 329.84L584.664 323.119L582.413 323.599C582.168 323.641 581.878 323.702 581.533 323.786L580.638 323.977C578.424 324.449 572.45 326.178 567.363 327.818C563.352 329.112 557.068 330.701 551.841 331.778C551.285 331.843 550.803 331.879 550.409 331.885C542.205 332.007 537.205 333.529 532.739 338.141C529.582 340.438 527.029 343.478 524.649 347.54C520.679 354.315 520.988 354.64 529.854 353.002C541.75 350.803 541.826 351.082 531.924 360.623C523.71 368.539 511.543 381.967 489.769 407.148C474.383 424.942 456.257 450.629 457.916 452.288C457.962 452.334 458.054 452.354 458.188 452.349C458.37 452.686 458.81 452.797 459.465 452.797C461.062 452.797 562.71 402.307 578.217 393.81C582.997 391.191 587.714 388.763 588.699 388.415C592.026 387.238 589.27 386.22 578.603 384.931C574.72 384.157 569.307 383.411 562.956 382.82L553 381.894L561.774 365.864Z" fill="url(#paint13_linear_9_2438)" fill-opacity="0.42"/>
<path d="M561.774 365.864C566.599 357.047 573.723 343.823 577.605 336.476L579.02 333.798C579.795 332.352 580.499 331.022 581.112 329.84L584.664 323.119L582.413 323.599C582.168 323.641 581.878 323.702 581.533 323.786L580.638 323.977C578.424 324.449 572.45 326.178 567.363 327.818C563.352 329.112 557.068 330.701 551.841 331.778C551.285 331.843 550.803 331.879 550.409 331.885C542.205 332.007 537.205 333.529 532.739 338.141C529.582 340.438 527.029 343.478 524.649 347.54C520.679 354.315 520.988 354.64 529.854 353.002C541.75 350.803 541.826 351.082 531.924 360.623C523.71 368.539 511.543 381.967 489.769 407.148C474.383 424.942 456.257 450.629 457.916 452.288C457.962 452.334 458.054 452.354 458.188 452.349C458.37 452.686 458.81 452.797 459.465 452.797C461.062 452.797 562.71 402.307 578.217 393.81C582.997 391.191 587.714 388.763 588.699 388.415C592.026 387.238 589.27 386.22 578.603 384.931C574.72 384.157 569.307 383.411 562.956 382.82L553 381.894L561.774 365.864Z" fill="url(#paint14_linear_9_2438)" fill-opacity="0.5"/>
<path d="M561.774 365.864C566.599 357.047 573.723 343.823 577.605 336.476L579.02 333.798C579.795 332.352 580.499 331.022 581.112 329.84L584.664 323.119L582.413 323.599C582.168 323.641 581.878 323.702 581.533 323.786L580.638 323.977C578.424 324.449 572.45 326.178 567.363 327.818C563.352 329.112 557.068 330.701 551.841 331.778C551.285 331.843 550.803 331.879 550.409 331.885C542.205 332.007 537.205 333.529 532.739 338.141C529.582 340.438 527.029 343.478 524.649 347.54C520.679 354.315 520.988 354.64 529.854 353.002C541.75 350.803 541.826 351.082 531.924 360.623C523.71 368.539 511.543 381.967 489.769 407.148C474.383 424.942 456.257 450.629 457.916 452.288C457.962 452.334 458.054 452.354 458.188 452.349C458.37 452.686 458.81 452.797 459.465 452.797C461.062 452.797 562.71 402.307 578.217 393.81C582.997 391.191 587.714 388.763 588.699 388.415C592.026 387.238 589.27 386.22 578.603 384.931C574.72 384.157 569.307 383.411 562.956 382.82L553 381.894L561.774 365.864Z" fill="url(#paint15_linear_9_2438)" fill-opacity="0.36"/>
<path d="M40.4675 323.786L41.3625 323.977C43.5762 324.449 49.5501 326.178 54.6373 327.818C58.6476 329.112 64.9324 330.701 70.1594 331.778C70.7151 331.843 71.197 331.879 71.5909 331.885C79.7952 332.007 84.7948 333.529 89.2609 338.141C92.4181 340.438 94.9705 343.478 97.3514 347.54C101.321 354.315 101.012 354.64 92.1458 353.002C80.2497 350.803 80.1745 351.082 90.0764 360.623C98.2899 368.539 110.457 381.967 132.231 407.148C147.617 424.942 165.743 450.629 164.084 452.288C164.038 452.334 163.946 452.354 163.812 452.349C163.63 452.686 163.19 452.797 162.535 452.797C160.938 452.797 59.2904 402.307 43.7833 393.81C39.0032 391.191 34.2859 388.763 33.3006 388.415C29.9741 387.238 32.7299 386.22 43.3972 384.931C47.2803 384.157 52.6927 383.411 59.0438 382.82L68.9999 381.894L60.2265 365.864C55.4007 357.047 48.2774 343.823 44.3951 336.476L42.9786 333.796C42.2042 332.351 41.501 331.021 40.8884 329.841L37.3359 323.119L39.5871 323.599C39.8316 323.641 40.1222 323.702 40.4675 323.786Z" fill="url(#paint16_linear_9_2438)"/>
<path d="M40.4675 323.786L41.3625 323.977C43.5762 324.449 49.5501 326.178 54.6373 327.818C58.6476 329.112 64.9324 330.701 70.1594 331.778C70.7151 331.843 71.197 331.879 71.5909 331.885C79.7952 332.007 84.7948 333.529 89.2609 338.141C92.4181 340.438 94.9705 343.478 97.3514 347.54C101.321 354.315 101.012 354.64 92.1458 353.002C80.2497 350.803 80.1745 351.082 90.0764 360.623C98.2899 368.539 110.457 381.967 132.231 407.148C147.617 424.942 165.743 450.629 164.084 452.288C164.038 452.334 163.946 452.354 163.812 452.349C163.63 452.686 163.19 452.797 162.535 452.797C160.938 452.797 59.2904 402.307 43.7833 393.81C39.0032 391.191 34.2859 388.763 33.3006 388.415C29.9741 387.238 32.7299 386.22 43.3972 384.931C47.2803 384.157 52.6927 383.411 59.0438 382.82L68.9999 381.894L60.2265 365.864C55.4007 357.047 48.2774 343.823 44.3951 336.476L42.9786 333.796C42.2042 332.351 41.501 331.021 40.8884 329.841L37.3359 323.119L39.5871 323.599C39.8316 323.641 40.1222 323.702 40.4675 323.786Z" fill="url(#paint17_linear_9_2438)" fill-opacity="0.42"/>
<path d="M40.4675 323.786L41.3625 323.977C43.5762 324.449 49.5501 326.178 54.6373 327.818C58.6476 329.112 64.9324 330.701 70.1594 331.778C70.7151 331.843 71.197 331.879 71.5909 331.885C79.7952 332.007 84.7948 333.529 89.2609 338.141C92.4181 340.438 94.9705 343.478 97.3514 347.54C101.321 354.315 101.012 354.64 92.1458 353.002C80.2497 350.803 80.1745 351.082 90.0764 360.623C98.2899 368.539 110.457 381.967 132.231 407.148C147.617 424.942 165.743 450.629 164.084 452.288C164.038 452.334 163.946 452.354 163.812 452.349C163.63 452.686 163.19 452.797 162.535 452.797C160.938 452.797 59.2904 402.307 43.7833 393.81C39.0032 391.191 34.2859 388.763 33.3006 388.415C29.9741 387.238 32.7299 386.22 43.3972 384.931C47.2803 384.157 52.6927 383.411 59.0438 382.82L68.9999 381.894L60.2265 365.864C55.4007 357.047 48.2774 343.823 44.3951 336.476L42.9786 333.796C42.2042 332.351 41.501 331.021 40.8884 329.841L37.3359 323.119L39.5871 323.599C39.8316 323.641 40.1222 323.702 40.4675 323.786Z" fill="url(#paint18_linear_9_2438)" fill-opacity="0.5"/>
<path d="M40.4675 323.786L41.3625 323.977C43.5762 324.449 49.5501 326.178 54.6373 327.818C58.6476 329.112 64.9324 330.701 70.1594 331.778C70.7151 331.843 71.197 331.879 71.5909 331.885C79.7952 332.007 84.7948 333.529 89.2609 338.141C92.4181 340.438 94.9705 343.478 97.3514 347.54C101.321 354.315 101.012 354.64 92.1458 353.002C80.2497 350.803 80.1745 351.082 90.0764 360.623C98.2899 368.539 110.457 381.967 132.231 407.148C147.617 424.942 165.743 450.629 164.084 452.288C164.038 452.334 163.946 452.354 163.812 452.349C163.63 452.686 163.19 452.797 162.535 452.797C160.938 452.797 59.2904 402.307 43.7833 393.81C39.0032 391.191 34.2859 388.763 33.3006 388.415C29.9741 387.238 32.7299 386.22 43.3972 384.931C47.2803 384.157 52.6927 383.411 59.0438 382.82L68.9999 381.894L60.2265 365.864C55.4007 357.047 48.2774 343.823 44.3951 336.476L42.9786 333.796C42.2042 332.351 41.501 331.021 40.8884 329.841L37.3359 323.119L39.5871 323.599C39.8316 323.641 40.1222 323.702 40.4675 323.786Z" fill="url(#paint19_linear_9_2438)" fill-opacity="0.36"/>
<path d="M350.067 432.756C345.497 423.007 335.597 412.807 327.651 409.662C323.079 407.853 317.007 407.07 311 407.236C304.993 407.07 298.921 407.853 294.349 409.662C286.403 412.807 276.503 423.007 271.933 432.756C266.826 443.653 266.953 467.307 272.178 477.945C280.168 494.215 295.617 502.51 311 501.976C326.383 502.51 341.832 494.215 349.822 477.945C355.047 467.307 355.174 443.653 350.067 432.756Z" fill="url(#paint20_linear_9_2438)"/>
<path d="M350.067 432.756C345.497 423.007 335.597 412.807 327.651 409.662C323.079 407.853 317.007 407.07 311 407.236C304.993 407.07 298.921 407.853 294.349 409.662C286.403 412.807 276.503 423.007 271.933 432.756C266.826 443.653 266.953 467.307 272.178 477.945C280.168 494.215 295.617 502.51 311 501.976C326.383 502.51 341.832 494.215 349.822 477.945C355.047 467.307 355.174 443.653 350.067 432.756Z" fill="url(#paint21_linear_9_2438)" fill-opacity="0.42"/>
<path d="M350.067 432.756C345.497 423.007 335.597 412.807 327.651 409.662C323.079 407.853 317.007 407.07 311 407.236C304.993 407.07 298.921 407.853 294.349 409.662C286.403 412.807 276.503 423.007 271.933 432.756C266.826 443.653 266.953 467.307 272.178 477.945C280.168 494.215 295.617 502.51 311 501.976C326.383 502.51 341.832 494.215 349.822 477.945C355.047 467.307 355.174 443.653 350.067 432.756Z" fill="url(#paint22_linear_9_2438)" fill-opacity="0.5"/>
<path d="M350.067 432.756C345.497 423.007 335.597 412.807 327.651 409.662C323.079 407.853 317.007 407.07 311 407.236C304.993 407.07 298.921 407.853 294.349 409.662C286.403 412.807 276.503 423.007 271.933 432.756C266.826 443.653 266.953 467.307 272.178 477.945C280.168 494.215 295.617 502.51 311 501.976C326.383 502.51 341.832 494.215 349.822 477.945C355.047 467.307 355.174 443.653 350.067 432.756Z" fill="url(#paint23_linear_9_2438)" fill-opacity="0.36"/>
<defs>
<linearGradient id="paint0_linear_9_2438" x1="28.4997" y1="330.999" x2="411.514" y2="60.182" gradientUnits="userSpaceOnUse">
<stop offset="0.356663" stop-color="#420D75"/>
<stop offset="0.71874" stop-color="#6B1483"/>
<stop offset="1" stop-color="#852388"/>
</linearGradient>
<linearGradient id="paint1_linear_9_2438" x1="289.5" y1="163.001" x2="577.065" y2="190.672" gradientUnits="userSpaceOnUse">
<stop offset="0.0638507" stop-color="#420D75"/>
<stop offset="0.340111" stop-color="#6B1483"/>
<stop offset="0.557964" stop-color="#852388"/>
</linearGradient>
<linearGradient id="paint2_linear_9_2438" x1="150" y1="149" x2="427.5" y2="312.5" gradientUnits="userSpaceOnUse">
<stop offset="0.126749" stop-color="#410C76"/>
<stop offset="0.377335" stop-color="#520E7B"/>
<stop offset="0.805613" stop-color="#5F1282"/>
<stop offset="1" stop-color="#842292"/>
</linearGradient>
<linearGradient id="paint3_linear_9_2438" x1="32" y1="217" x2="589" y2="507" gradientUnits="userSpaceOnUse">
<stop offset="0.102462" stop-color="#410C76"/>
<stop offset="0.2683" stop-color="#520E7B"/>
<stop offset="0.614212" stop-color="#5F1282"/>
<stop offset="0.684463" stop-color="#842292"/>
</linearGradient>
<linearGradient id="paint4_linear_9_2438" x1="28.4997" y1="330.999" x2="411.514" y2="60.182" gradientUnits="userSpaceOnUse">
<stop offset="0.356663" stop-color="#420D75"/>
<stop offset="0.71874" stop-color="#6B1483"/>
<stop offset="1" stop-color="#852388"/>
</linearGradient>
<linearGradient id="paint5_linear_9_2438" x1="289.5" y1="163.001" x2="577.065" y2="190.672" gradientUnits="userSpaceOnUse">
<stop offset="0.0638507" stop-color="#420D75"/>
<stop offset="0.340111" stop-color="#6B1483"/>
<stop offset="0.557964" stop-color="#852388"/>
</linearGradient>
<linearGradient id="paint6_linear_9_2438" x1="150" y1="149" x2="427.5" y2="312.5" gradientUnits="userSpaceOnUse">
<stop offset="0.126749" stop-color="#410C76"/>
<stop offset="0.377335" stop-color="#520E7B"/>
<stop offset="0.805613" stop-color="#5F1282"/>
<stop offset="1" stop-color="#842292"/>
</linearGradient>
<linearGradient id="paint7_linear_9_2438" x1="32" y1="217" x2="589" y2="507" gradientUnits="userSpaceOnUse">
<stop offset="0.102462" stop-color="#410C76"/>
<stop offset="0.2683" stop-color="#520E7B"/>
<stop offset="0.614212" stop-color="#5F1282"/>
<stop offset="0.684463" stop-color="#842292"/>
</linearGradient>
<linearGradient id="paint8_linear_9_2438" x1="28.4997" y1="330.999" x2="411.514" y2="60.182" gradientUnits="userSpaceOnUse">
<stop offset="0.356663" stop-color="#420D75"/>
<stop offset="0.71874" stop-color="#6B1483"/>
<stop offset="1" stop-color="#852388"/>
</linearGradient>
<linearGradient id="paint9_linear_9_2438" x1="289.5" y1="163.001" x2="577.065" y2="190.672" gradientUnits="userSpaceOnUse">
<stop offset="0.0638507" stop-color="#420D75"/>
<stop offset="0.340111" stop-color="#6B1483"/>
<stop offset="0.557964" stop-color="#852388"/>
</linearGradient>
<linearGradient id="paint10_linear_9_2438" x1="150" y1="149" x2="427.5" y2="312.5" gradientUnits="userSpaceOnUse">
<stop offset="0.126749" stop-color="#410C76"/>
<stop offset="0.377335" stop-color="#520E7B"/>
<stop offset="0.805613" stop-color="#5F1282"/>
<stop offset="1" stop-color="#842292"/>
</linearGradient>
<linearGradient id="paint11_linear_9_2438" x1="32" y1="217" x2="589" y2="507" gradientUnits="userSpaceOnUse">
<stop offset="0.102462" stop-color="#410C76"/>
<stop offset="0.2683" stop-color="#520E7B"/>
<stop offset="0.614212" stop-color="#5F1282"/>
<stop offset="0.684463" stop-color="#842292"/>
</linearGradient>
<linearGradient id="paint12_linear_9_2438" x1="28.4997" y1="330.999" x2="411.514" y2="60.182" gradientUnits="userSpaceOnUse">
<stop offset="0.356663" stop-color="#420D75"/>
<stop offset="0.71874" stop-color="#6B1483"/>
<stop offset="1" stop-color="#852388"/>
</linearGradient>
<linearGradient id="paint13_linear_9_2438" x1="289.5" y1="163.001" x2="577.065" y2="190.672" gradientUnits="userSpaceOnUse">
<stop offset="0.0638507" stop-color="#420D75"/>
<stop offset="0.340111" stop-color="#6B1483"/>
<stop offset="0.557964" stop-color="#852388"/>
</linearGradient>
<linearGradient id="paint14_linear_9_2438" x1="150" y1="149" x2="427.5" y2="312.5" gradientUnits="userSpaceOnUse">
<stop offset="0.126749" stop-color="#410C76"/>
<stop offset="0.377335" stop-color="#520E7B"/>
<stop offset="0.805613" stop-color="#5F1282"/>
<stop offset="1" stop-color="#842292"/>
</linearGradient>
<linearGradient id="paint15_linear_9_2438" x1="32" y1="217" x2="589" y2="507" gradientUnits="userSpaceOnUse">
<stop offset="0.102462" stop-color="#410C76"/>
<stop offset="0.2683" stop-color="#520E7B"/>
<stop offset="0.614212" stop-color="#5F1282"/>
<stop offset="0.684463" stop-color="#842292"/>
</linearGradient>
<linearGradient id="paint16_linear_9_2438" x1="28.4997" y1="330.999" x2="411.514" y2="60.182" gradientUnits="userSpaceOnUse">
<stop offset="0.356663" stop-color="#420D75"/>
<stop offset="0.71874" stop-color="#6B1483"/>
<stop offset="1" stop-color="#852388"/>
</linearGradient>
<linearGradient id="paint17_linear_9_2438" x1="289.5" y1="163.001" x2="577.065" y2="190.672" gradientUnits="userSpaceOnUse">
<stop offset="0.0638507" stop-color="#420D75"/>
<stop offset="0.340111" stop-color="#6B1483"/>
<stop offset="0.557964" stop-color="#852388"/>
</linearGradient>
<linearGradient id="paint18_linear_9_2438" x1="150" y1="149" x2="427.5" y2="312.5" gradientUnits="userSpaceOnUse">
<stop offset="0.126749" stop-color="#410C76"/>
<stop offset="0.377335" stop-color="#520E7B"/>
<stop offset="0.805613" stop-color="#5F1282"/>
<stop offset="1" stop-color="#842292"/>
</linearGradient>
<linearGradient id="paint19_linear_9_2438" x1="32" y1="217" x2="589" y2="507" gradientUnits="userSpaceOnUse">
<stop offset="0.102462" stop-color="#410C76"/>
<stop offset="0.2683" stop-color="#520E7B"/>
<stop offset="0.614212" stop-color="#5F1282"/>
<stop offset="0.684463" stop-color="#842292"/>
</linearGradient>
<linearGradient id="paint20_linear_9_2438" x1="28.4997" y1="330.999" x2="411.514" y2="60.182" gradientUnits="userSpaceOnUse">
<stop offset="0.356663" stop-color="#420D75"/>
<stop offset="0.71874" stop-color="#6B1483"/>
<stop offset="1" stop-color="#852388"/>
</linearGradient>
<linearGradient id="paint21_linear_9_2438" x1="289.5" y1="163.001" x2="577.065" y2="190.672" gradientUnits="userSpaceOnUse">
<stop offset="0.0638507" stop-color="#420D75"/>
<stop offset="0.340111" stop-color="#6B1483"/>
<stop offset="0.557964" stop-color="#852388"/>
</linearGradient>
<linearGradient id="paint22_linear_9_2438" x1="150" y1="149" x2="427.5" y2="312.5" gradientUnits="userSpaceOnUse">
<stop offset="0.126749" stop-color="#410C76"/>
<stop offset="0.377335" stop-color="#520E7B"/>
<stop offset="0.805613" stop-color="#5F1282"/>
<stop offset="1" stop-color="#842292"/>
</linearGradient>
<linearGradient id="paint23_linear_9_2438" x1="32" y1="217" x2="589" y2="507" gradientUnits="userSpaceOnUse">
<stop offset="0.102462" stop-color="#410C76"/>
<stop offset="0.2683" stop-color="#520E7B"/>
<stop offset="0.614212" stop-color="#5F1282"/>
<stop offset="0.684463" stop-color="#842292"/>
</linearGradient>
</defs>
</svg>
