<svg width="1500" height="500" viewBox="0 0 1500 500" fill="none" xmlns="http://www.w3.org/2000/svg">
<path d="M153.888 327.536C139.381 327.536 127.605 326.256 118.56 323.696C109.685 320.965 103.2 315.931 99.104 308.592C95.1787 301.253 93.216 290.587 93.216 276.592C93.216 261.744 95.1787 250.48 99.104 242.8C103.2 234.949 109.685 229.573 118.56 226.672C127.605 223.771 139.381 222.32 153.888 222.32C158.325 222.32 162.592 222.576 166.688 223.088C170.784 223.429 175.648 224.027 181.28 224.88C184.352 225.221 186.827 225.904 188.704 226.928C190.752 227.952 192.288 229.659 193.312 232.048C194.336 234.437 194.848 237.936 194.848 242.544C192.8 241.691 189.813 241.008 185.888 240.496C181.963 239.813 177.781 239.301 173.344 238.96C169.077 238.619 165.152 238.448 161.568 238.448C152.523 238.448 145.269 239.557 139.808 241.776C134.517 243.995 130.677 247.749 128.288 253.04C126.069 258.331 124.96 265.499 124.96 274.544C124.96 283.589 126.069 290.757 128.288 296.048C130.507 301.339 134.261 305.093 139.552 307.312C145.013 309.531 152.352 310.64 161.568 310.64C165.835 310.64 170.101 310.469 174.368 310.128C178.805 309.616 182.816 309.104 186.4 308.592C189.984 307.909 192.8 307.141 194.848 306.288V314.992C194.848 318.576 192.971 321.307 189.216 323.184C185.632 324.891 180.768 326 174.624 326.512C168.48 327.195 161.568 327.536 153.888 327.536ZM225.82 326C220.7 326 217.457 325.317 216.092 323.952C214.897 322.416 214.3 319.6 214.3 315.504V196.72H245.532V226.672C247.409 226.16 249.884 225.733 252.956 225.392C256.199 224.88 259.527 224.539 262.94 224.368C266.524 224.197 269.852 224.112 272.924 224.112C284.017 224.112 292.892 224.965 299.548 226.672C306.375 228.379 311.409 231.109 314.652 234.864C318.065 238.448 320.284 243.056 321.308 248.688C322.503 254.32 323.1 261.061 323.1 268.912V311.92C323.1 316.016 322.759 319.088 322.076 321.136C321.393 323.013 320.028 324.293 317.98 324.976C316.103 325.659 313.201 326 309.276 326H292.892V264.304C292.892 257.136 291.953 251.76 290.076 248.176C288.199 244.421 285.383 241.947 281.628 240.752C278.044 239.387 273.265 238.704 267.292 238.704C265.244 238.704 262.769 238.875 259.868 239.216C257.137 239.387 254.407 239.728 251.676 240.24C249.116 240.581 247.068 241.093 245.532 241.776V326H225.82ZM396.97 327.28C385.706 327.28 376.575 326.853 369.578 326C362.581 325.317 357.205 323.867 353.45 321.648C349.695 319.259 347.135 316.016 345.77 311.92C344.405 307.824 343.722 302.619 343.722 296.304C343.722 287.6 344.661 280.944 346.538 276.336C348.415 271.728 351.573 268.656 356.01 267.12C360.618 265.413 366.762 264.56 374.442 264.56C378.709 264.56 383.487 264.645 388.778 264.816C394.239 264.816 399.53 264.901 404.65 265.072C409.77 265.243 414.207 265.584 417.962 266.096C421.887 266.437 424.533 266.779 425.898 267.12C425.898 260.976 425.386 256.112 424.362 252.528C423.338 248.944 421.631 246.213 419.242 244.336C416.853 242.459 413.781 241.264 410.026 240.752C406.442 240.24 402.09 239.984 396.97 239.984C391.167 239.984 385.279 240.155 379.306 240.496C373.503 240.667 367.957 241.093 362.666 241.776C357.546 242.288 353.023 243.056 349.098 244.08V238.192C349.098 233.925 350.122 230.853 352.17 228.976C354.218 226.928 356.863 225.563 360.106 224.88C363.861 224.027 369.322 223.429 376.49 223.088C383.829 222.747 391.594 222.576 399.786 222.576C410.367 222.576 419.242 223.088 426.41 224.112C433.578 225.136 439.295 227.184 443.562 230.256C447.999 233.328 451.157 237.851 453.034 243.824C454.911 249.627 455.85 257.477 455.85 267.376V319.088C453.802 321.989 447.829 324.123 437.93 325.488C428.202 326.683 414.549 327.28 396.97 327.28ZM396.714 313.968C402.517 313.968 407.295 313.883 411.05 313.712C414.975 313.371 418.133 312.859 420.522 312.176C422.911 311.493 424.703 310.64 425.898 309.616V277.872C424.191 277.36 421.461 276.933 417.706 276.592C414.122 276.08 410.453 275.739 406.698 275.568C402.943 275.227 399.786 275.056 397.226 275.056C392.106 275.056 387.925 275.483 384.682 276.336C381.439 277.019 379.05 278.725 377.514 281.456C376.149 284.187 375.466 288.453 375.466 294.256C375.466 298.864 375.978 302.704 377.002 305.776C378.026 308.677 380.074 310.811 383.146 312.176C386.218 313.371 390.741 313.968 396.714 313.968ZM505.418 327.024C495.349 327.024 488.351 324.891 484.426 320.624C480.671 316.187 478.794 309.275 478.794 299.888V223.856H510.026V298.352C510.026 304.325 510.794 308.507 512.33 310.896C513.866 313.115 516.597 314.224 520.522 314.224C522.399 314.224 524.191 314.053 525.898 313.712C527.605 313.371 528.714 313.115 529.226 312.944V324.72C528.543 324.891 527.349 325.147 525.642 325.488C523.935 325.829 521.461 326.171 518.218 326.512C514.975 326.853 510.709 327.024 505.418 327.024ZM494.666 210.544C489.717 210.544 486.133 209.947 483.914 208.752C481.695 207.387 480.586 204.912 480.586 201.328C480.586 197.744 481.695 195.269 483.914 193.904C486.303 192.539 489.973 191.856 494.922 191.856C499.871 192.027 503.37 192.795 505.418 194.16C507.637 195.355 508.661 197.744 508.49 201.328C508.49 204.912 507.466 207.387 505.418 208.752C503.37 209.947 499.786 210.544 494.666 210.544ZM552.498 326C546.866 326 544.05 323.099 544.05 317.296V230.512C549.17 228.464 556.423 226.757 565.81 225.392C575.367 223.856 585.949 223.088 597.554 223.088C609.671 223.088 619.229 223.771 626.226 225.136C633.394 226.501 638.685 228.805 642.098 232.048C645.682 235.291 647.986 239.557 649.01 244.848C650.205 250.139 650.802 256.709 650.802 264.56V313.968C650.802 317.04 650.546 319.515 650.034 321.392C649.693 323.099 648.583 324.379 646.706 325.232C644.999 325.915 642.269 326.256 638.514 326.256L620.082 326V257.392C620.082 251.419 618.205 247.067 614.45 244.336C610.695 241.605 605.149 240.24 597.81 240.24C595.25 240.24 592.519 240.496 589.618 241.008C586.717 241.349 583.986 241.947 581.426 242.8C578.866 243.483 576.733 244.421 575.026 245.616V326H552.498ZM710.128 327.024C702.107 327.024 695.792 326.171 691.184 324.464C686.747 322.587 683.589 319.6 681.712 315.504C679.835 311.237 678.896 305.435 678.896 298.096V240.24H668.4V223.856H678.896V208.752C678.896 205.168 679.152 202.523 679.664 200.816C680.176 199.109 681.2 198 682.736 197.488C684.443 196.976 686.917 196.72 690.16 196.72H710.128C710.128 197.232 710.043 198.085 709.872 199.28C709.872 200.304 709.872 201.669 709.872 203.376V223.856H734.448V240.24H710.128V295.28C710.128 301.936 710.725 306.8 711.92 309.872C713.285 312.773 716.699 314.224 722.16 314.224C723.867 314.224 725.829 314.053 728.048 313.712C730.437 313.371 732.059 313.029 732.912 312.688V324.72C731.888 324.891 729.328 325.317 725.232 326C721.136 326.683 716.101 327.024 710.128 327.024ZM802.47 327.28C791.206 327.28 782.075 326.853 775.078 326C768.081 325.317 762.705 323.867 758.95 321.648C755.195 319.259 752.635 316.016 751.27 311.92C749.905 307.824 749.222 302.619 749.222 296.304C749.222 287.6 750.161 280.944 752.038 276.336C753.915 271.728 757.073 268.656 761.51 267.12C766.118 265.413 772.262 264.56 779.942 264.56C784.209 264.56 788.987 264.645 794.278 264.816C799.739 264.816 805.03 264.901 810.15 265.072C815.27 265.243 819.707 265.584 823.462 266.096C827.387 266.437 830.033 266.779 831.398 267.12C831.398 260.976 830.886 256.112 829.862 252.528C828.838 248.944 827.131 246.213 824.742 244.336C822.353 242.459 819.281 241.264 815.526 240.752C811.942 240.24 807.59 239.984 802.47 239.984C796.667 239.984 790.779 240.155 784.806 240.496C779.003 240.667 773.457 241.093 768.166 241.776C763.046 242.288 758.523 243.056 754.598 244.08V238.192C754.598 233.925 755.622 230.853 757.67 228.976C759.718 226.928 762.363 225.563 765.606 224.88C769.361 224.027 774.822 223.429 781.99 223.088C789.329 222.747 797.094 222.576 805.286 222.576C815.867 222.576 824.742 223.088 831.91 224.112C839.078 225.136 844.795 227.184 849.062 230.256C853.499 233.328 856.657 237.851 858.534 243.824C860.411 249.627 861.35 257.477 861.35 267.376V319.088C859.302 321.989 853.329 324.123 843.43 325.488C833.702 326.683 820.049 327.28 802.47 327.28ZM802.214 313.968C808.017 313.968 812.795 313.883 816.55 313.712C820.475 313.371 823.633 312.859 826.022 312.176C828.411 311.493 830.203 310.64 831.398 309.616V277.872C829.691 277.36 826.961 276.933 823.206 276.592C819.622 276.08 815.953 275.739 812.198 275.568C808.443 275.227 805.286 275.056 802.726 275.056C797.606 275.056 793.425 275.483 790.182 276.336C786.939 277.019 784.55 278.725 783.014 281.456C781.649 284.187 780.966 288.453 780.966 294.256C780.966 298.864 781.478 302.704 782.502 305.776C783.526 308.677 785.574 310.811 788.646 312.176C791.718 313.371 796.241 313.968 802.214 313.968ZM910.918 327.024C900.849 327.024 893.851 324.891 889.926 320.624C886.171 316.187 884.294 309.275 884.294 299.888V223.856H915.526V298.352C915.526 304.325 916.294 308.507 917.83 310.896C919.366 313.115 922.097 314.224 926.022 314.224C927.899 314.224 929.691 314.053 931.398 313.712C933.105 313.371 934.214 313.115 934.726 312.944V324.72C934.043 324.891 932.849 325.147 931.142 325.488C929.435 325.829 926.961 326.171 923.718 326.512C920.475 326.853 916.209 327.024 910.918 327.024ZM900.166 210.544C895.217 210.544 891.633 209.947 889.414 208.752C887.195 207.387 886.086 204.912 886.086 201.328C886.086 197.744 887.195 195.269 889.414 193.904C891.803 192.539 895.473 191.856 900.422 191.856C905.371 192.027 908.87 192.795 910.918 194.16C913.137 195.355 914.161 197.744 913.99 201.328C913.99 204.912 912.966 207.387 910.918 208.752C908.87 209.947 905.286 210.544 900.166 210.544ZM978.99 327.024C968.409 327.024 960.814 325.147 956.206 321.392C951.598 317.467 949.294 310.64 949.294 300.912V208.752C949.294 205.509 949.55 203.035 950.062 201.328C950.745 199.621 951.939 198.427 953.646 197.744C955.353 197.061 957.827 196.72 961.07 196.72H980.782C980.782 197.232 980.611 198.853 980.27 201.584C980.099 204.315 980.014 207.472 980.014 211.056V297.072C980.014 303.216 980.782 307.653 982.318 310.384C983.854 312.944 986.755 314.224 991.022 314.224C992.387 314.224 994.009 314.053 995.886 313.712C997.763 313.371 998.958 313.115 999.47 312.944V324.72C998.275 324.891 996.227 325.317 993.326 326C990.425 326.683 985.646 327.024 978.99 327.024ZM1016.87 316.016C1016.87 311.237 1018.4 308.251 1021.47 307.056C1024.72 305.861 1028.64 305.264 1033.25 305.264C1037.86 305.264 1041.53 305.861 1044.26 307.056C1046.99 308.251 1048.35 311.237 1048.35 316.016C1048.35 319.259 1047.67 321.648 1046.31 323.184C1044.94 324.549 1043.06 325.488 1040.67 326C1038.46 326.341 1035.81 326.512 1032.74 326.512C1029.84 326.512 1027.19 326.341 1024.8 326C1022.41 325.488 1020.45 324.549 1018.91 323.184C1017.55 321.648 1016.87 319.259 1016.87 316.016ZM1058.49 326L1097.4 275.312L1066.68 233.328C1065.49 231.451 1064.21 229.659 1062.84 227.952C1061.65 226.075 1060.28 224.624 1058.74 223.6H1098.68L1120.95 253.808L1143.99 223.6H1167.29C1166.95 224.112 1166.35 224.795 1165.5 225.648C1164.81 226.501 1163.96 227.696 1162.94 229.232L1134.01 271.216L1174.46 326H1148.09C1143.65 326 1139.81 325.232 1136.57 323.696C1133.33 322.16 1130.42 319.685 1127.86 316.272L1108.92 290.928L1082.04 326H1058.49ZM1235.71 354.416C1226.67 354.416 1218.22 353.989 1210.37 353.136C1202.69 352.283 1196.46 350.917 1191.68 349.04C1186.9 347.333 1184.51 345.115 1184.51 342.384V333.168C1187.24 334.704 1191 335.984 1195.78 337.008C1200.56 338.032 1205.68 338.8 1211.14 339.312C1216.6 339.995 1221.72 340.336 1226.5 340.336C1234.69 340.336 1241.18 339.312 1245.95 337.264C1250.9 335.387 1254.4 332.315 1256.45 328.048C1258.67 323.781 1259.78 318.32 1259.78 311.664V300.4C1258.07 303.813 1255.6 306.544 1252.35 308.592C1249.11 310.64 1245.02 312.176 1240.07 313.2C1235.12 314.053 1229.14 314.48 1222.15 314.48C1210.71 314.48 1202.18 312.773 1196.55 309.36C1191.08 305.776 1187.5 300.827 1185.79 294.512C1184.09 288.197 1183.23 280.859 1183.23 272.496V235.888C1183.23 233.328 1183.4 231.195 1183.75 229.488C1184.26 227.611 1185.28 226.245 1186.82 225.392C1188.35 224.368 1190.83 223.856 1194.24 223.856H1214.98C1214.98 228.293 1214.98 232.304 1214.98 235.888C1214.98 239.301 1214.98 242.629 1214.98 245.872C1214.98 248.944 1214.98 252.272 1214.98 255.856C1214.98 259.269 1214.98 263.195 1214.98 267.632C1214.98 277.36 1215.83 284.528 1217.54 289.136C1219.42 293.573 1221.98 296.389 1225.22 297.584C1228.63 298.779 1232.64 299.376 1237.25 299.376C1241.86 299.376 1245.78 298.693 1249.03 297.328C1252.27 295.792 1254.74 292.891 1256.45 288.624C1258.33 284.357 1259.27 277.872 1259.27 269.168V223.856H1280.51C1284.1 223.856 1286.74 224.453 1288.45 225.648C1290.16 226.672 1291.01 229.403 1291.01 233.84V309.36C1291.01 324.72 1286.66 336.069 1277.95 343.408C1269.42 350.747 1255.34 354.416 1235.71 354.416ZM1344.78 309.104H1409.54L1410.06 316.016C1410.4 319.771 1409.63 322.416 1407.75 323.952C1406.05 325.317 1403.14 326 1399.05 326H1305.61V310.384L1365.77 240.752H1308.17V233.072C1308.17 230.171 1308.94 227.952 1310.47 226.416C1312.18 224.709 1314.23 223.856 1316.62 223.856H1408.01C1408.52 226.416 1408.18 229.232 1406.98 232.304C1405.79 235.376 1404.17 238.448 1402.12 241.52C1400.07 244.592 1397.85 247.408 1395.46 249.968L1344.78 309.104Z" fill="url(#paint0_linear_47_306)"/>
<path d="M153.888 327.536C139.381 327.536 127.605 326.256 118.56 323.696C109.685 320.965 103.2 315.931 99.104 308.592C95.1787 301.253 93.216 290.587 93.216 276.592C93.216 261.744 95.1787 250.48 99.104 242.8C103.2 234.949 109.685 229.573 118.56 226.672C127.605 223.771 139.381 222.32 153.888 222.32C158.325 222.32 162.592 222.576 166.688 223.088C170.784 223.429 175.648 224.027 181.28 224.88C184.352 225.221 186.827 225.904 188.704 226.928C190.752 227.952 192.288 229.659 193.312 232.048C194.336 234.437 194.848 237.936 194.848 242.544C192.8 241.691 189.813 241.008 185.888 240.496C181.963 239.813 177.781 239.301 173.344 238.96C169.077 238.619 165.152 238.448 161.568 238.448C152.523 238.448 145.269 239.557 139.808 241.776C134.517 243.995 130.677 247.749 128.288 253.04C126.069 258.331 124.96 265.499 124.96 274.544C124.96 283.589 126.069 290.757 128.288 296.048C130.507 301.339 134.261 305.093 139.552 307.312C145.013 309.531 152.352 310.64 161.568 310.64C165.835 310.64 170.101 310.469 174.368 310.128C178.805 309.616 182.816 309.104 186.4 308.592C189.984 307.909 192.8 307.141 194.848 306.288V314.992C194.848 318.576 192.971 321.307 189.216 323.184C185.632 324.891 180.768 326 174.624 326.512C168.48 327.195 161.568 327.536 153.888 327.536ZM225.82 326C220.7 326 217.457 325.317 216.092 323.952C214.897 322.416 214.3 319.6 214.3 315.504V196.72H245.532V226.672C247.409 226.16 249.884 225.733 252.956 225.392C256.199 224.88 259.527 224.539 262.94 224.368C266.524 224.197 269.852 224.112 272.924 224.112C284.017 224.112 292.892 224.965 299.548 226.672C306.375 228.379 311.409 231.109 314.652 234.864C318.065 238.448 320.284 243.056 321.308 248.688C322.503 254.32 323.1 261.061 323.1 268.912V311.92C323.1 316.016 322.759 319.088 322.076 321.136C321.393 323.013 320.028 324.293 317.98 324.976C316.103 325.659 313.201 326 309.276 326H292.892V264.304C292.892 257.136 291.953 251.76 290.076 248.176C288.199 244.421 285.383 241.947 281.628 240.752C278.044 239.387 273.265 238.704 267.292 238.704C265.244 238.704 262.769 238.875 259.868 239.216C257.137 239.387 254.407 239.728 251.676 240.24C249.116 240.581 247.068 241.093 245.532 241.776V326H225.82ZM396.97 327.28C385.706 327.28 376.575 326.853 369.578 326C362.581 325.317 357.205 323.867 353.45 321.648C349.695 319.259 347.135 316.016 345.77 311.92C344.405 307.824 343.722 302.619 343.722 296.304C343.722 287.6 344.661 280.944 346.538 276.336C348.415 271.728 351.573 268.656 356.01 267.12C360.618 265.413 366.762 264.56 374.442 264.56C378.709 264.56 383.487 264.645 388.778 264.816C394.239 264.816 399.53 264.901 404.65 265.072C409.77 265.243 414.207 265.584 417.962 266.096C421.887 266.437 424.533 266.779 425.898 267.12C425.898 260.976 425.386 256.112 424.362 252.528C423.338 248.944 421.631 246.213 419.242 244.336C416.853 242.459 413.781 241.264 410.026 240.752C406.442 240.24 402.09 239.984 396.97 239.984C391.167 239.984 385.279 240.155 379.306 240.496C373.503 240.667 367.957 241.093 362.666 241.776C357.546 242.288 353.023 243.056 349.098 244.08V238.192C349.098 233.925 350.122 230.853 352.17 228.976C354.218 226.928 356.863 225.563 360.106 224.88C363.861 224.027 369.322 223.429 376.49 223.088C383.829 222.747 391.594 222.576 399.786 222.576C410.367 222.576 419.242 223.088 426.41 224.112C433.578 225.136 439.295 227.184 443.562 230.256C447.999 233.328 451.157 237.851 453.034 243.824C454.911 249.627 455.85 257.477 455.85 267.376V319.088C453.802 321.989 447.829 324.123 437.93 325.488C428.202 326.683 414.549 327.28 396.97 327.28ZM396.714 313.968C402.517 313.968 407.295 313.883 411.05 313.712C414.975 313.371 418.133 312.859 420.522 312.176C422.911 311.493 424.703 310.64 425.898 309.616V277.872C424.191 277.36 421.461 276.933 417.706 276.592C414.122 276.08 410.453 275.739 406.698 275.568C402.943 275.227 399.786 275.056 397.226 275.056C392.106 275.056 387.925 275.483 384.682 276.336C381.439 277.019 379.05 278.725 377.514 281.456C376.149 284.187 375.466 288.453 375.466 294.256C375.466 298.864 375.978 302.704 377.002 305.776C378.026 308.677 380.074 310.811 383.146 312.176C386.218 313.371 390.741 313.968 396.714 313.968ZM505.418 327.024C495.349 327.024 488.351 324.891 484.426 320.624C480.671 316.187 478.794 309.275 478.794 299.888V223.856H510.026V298.352C510.026 304.325 510.794 308.507 512.33 310.896C513.866 313.115 516.597 314.224 520.522 314.224C522.399 314.224 524.191 314.053 525.898 313.712C527.605 313.371 528.714 313.115 529.226 312.944V324.72C528.543 324.891 527.349 325.147 525.642 325.488C523.935 325.829 521.461 326.171 518.218 326.512C514.975 326.853 510.709 327.024 505.418 327.024ZM494.666 210.544C489.717 210.544 486.133 209.947 483.914 208.752C481.695 207.387 480.586 204.912 480.586 201.328C480.586 197.744 481.695 195.269 483.914 193.904C486.303 192.539 489.973 191.856 494.922 191.856C499.871 192.027 503.37 192.795 505.418 194.16C507.637 195.355 508.661 197.744 508.49 201.328C508.49 204.912 507.466 207.387 505.418 208.752C503.37 209.947 499.786 210.544 494.666 210.544ZM552.498 326C546.866 326 544.05 323.099 544.05 317.296V230.512C549.17 228.464 556.423 226.757 565.81 225.392C575.367 223.856 585.949 223.088 597.554 223.088C609.671 223.088 619.229 223.771 626.226 225.136C633.394 226.501 638.685 228.805 642.098 232.048C645.682 235.291 647.986 239.557 649.01 244.848C650.205 250.139 650.802 256.709 650.802 264.56V313.968C650.802 317.04 650.546 319.515 650.034 321.392C649.693 323.099 648.583 324.379 646.706 325.232C644.999 325.915 642.269 326.256 638.514 326.256L620.082 326V257.392C620.082 251.419 618.205 247.067 614.45 244.336C610.695 241.605 605.149 240.24 597.81 240.24C595.25 240.24 592.519 240.496 589.618 241.008C586.717 241.349 583.986 241.947 581.426 242.8C578.866 243.483 576.733 244.421 575.026 245.616V326H552.498ZM710.128 327.024C702.107 327.024 695.792 326.171 691.184 324.464C686.747 322.587 683.589 319.6 681.712 315.504C679.835 311.237 678.896 305.435 678.896 298.096V240.24H668.4V223.856H678.896V208.752C678.896 205.168 679.152 202.523 679.664 200.816C680.176 199.109 681.2 198 682.736 197.488C684.443 196.976 686.917 196.72 690.16 196.72H710.128C710.128 197.232 710.043 198.085 709.872 199.28C709.872 200.304 709.872 201.669 709.872 203.376V223.856H734.448V240.24H710.128V295.28C710.128 301.936 710.725 306.8 711.92 309.872C713.285 312.773 716.699 314.224 722.16 314.224C723.867 314.224 725.829 314.053 728.048 313.712C730.437 313.371 732.059 313.029 732.912 312.688V324.72C731.888 324.891 729.328 325.317 725.232 326C721.136 326.683 716.101 327.024 710.128 327.024ZM802.47 327.28C791.206 327.28 782.075 326.853 775.078 326C768.081 325.317 762.705 323.867 758.95 321.648C755.195 319.259 752.635 316.016 751.27 311.92C749.905 307.824 749.222 302.619 749.222 296.304C749.222 287.6 750.161 280.944 752.038 276.336C753.915 271.728 757.073 268.656 761.51 267.12C766.118 265.413 772.262 264.56 779.942 264.56C784.209 264.56 788.987 264.645 794.278 264.816C799.739 264.816 805.03 264.901 810.15 265.072C815.27 265.243 819.707 265.584 823.462 266.096C827.387 266.437 830.033 266.779 831.398 267.12C831.398 260.976 830.886 256.112 829.862 252.528C828.838 248.944 827.131 246.213 824.742 244.336C822.353 242.459 819.281 241.264 815.526 240.752C811.942 240.24 807.59 239.984 802.47 239.984C796.667 239.984 790.779 240.155 784.806 240.496C779.003 240.667 773.457 241.093 768.166 241.776C763.046 242.288 758.523 243.056 754.598 244.08V238.192C754.598 233.925 755.622 230.853 757.67 228.976C759.718 226.928 762.363 225.563 765.606 224.88C769.361 224.027 774.822 223.429 781.99 223.088C789.329 222.747 797.094 222.576 805.286 222.576C815.867 222.576 824.742 223.088 831.91 224.112C839.078 225.136 844.795 227.184 849.062 230.256C853.499 233.328 856.657 237.851 858.534 243.824C860.411 249.627 861.35 257.477 861.35 267.376V319.088C859.302 321.989 853.329 324.123 843.43 325.488C833.702 326.683 820.049 327.28 802.47 327.28ZM802.214 313.968C808.017 313.968 812.795 313.883 816.55 313.712C820.475 313.371 823.633 312.859 826.022 312.176C828.411 311.493 830.203 310.64 831.398 309.616V277.872C829.691 277.36 826.961 276.933 823.206 276.592C819.622 276.08 815.953 275.739 812.198 275.568C808.443 275.227 805.286 275.056 802.726 275.056C797.606 275.056 793.425 275.483 790.182 276.336C786.939 277.019 784.55 278.725 783.014 281.456C781.649 284.187 780.966 288.453 780.966 294.256C780.966 298.864 781.478 302.704 782.502 305.776C783.526 308.677 785.574 310.811 788.646 312.176C791.718 313.371 796.241 313.968 802.214 313.968ZM910.918 327.024C900.849 327.024 893.851 324.891 889.926 320.624C886.171 316.187 884.294 309.275 884.294 299.888V223.856H915.526V298.352C915.526 304.325 916.294 308.507 917.83 310.896C919.366 313.115 922.097 314.224 926.022 314.224C927.899 314.224 929.691 314.053 931.398 313.712C933.105 313.371 934.214 313.115 934.726 312.944V324.72C934.043 324.891 932.849 325.147 931.142 325.488C929.435 325.829 926.961 326.171 923.718 326.512C920.475 326.853 916.209 327.024 910.918 327.024ZM900.166 210.544C895.217 210.544 891.633 209.947 889.414 208.752C887.195 207.387 886.086 204.912 886.086 201.328C886.086 197.744 887.195 195.269 889.414 193.904C891.803 192.539 895.473 191.856 900.422 191.856C905.371 192.027 908.87 192.795 910.918 194.16C913.137 195.355 914.161 197.744 913.99 201.328C913.99 204.912 912.966 207.387 910.918 208.752C908.87 209.947 905.286 210.544 900.166 210.544ZM978.99 327.024C968.409 327.024 960.814 325.147 956.206 321.392C951.598 317.467 949.294 310.64 949.294 300.912V208.752C949.294 205.509 949.55 203.035 950.062 201.328C950.745 199.621 951.939 198.427 953.646 197.744C955.353 197.061 957.827 196.72 961.07 196.72H980.782C980.782 197.232 980.611 198.853 980.27 201.584C980.099 204.315 980.014 207.472 980.014 211.056V297.072C980.014 303.216 980.782 307.653 982.318 310.384C983.854 312.944 986.755 314.224 991.022 314.224C992.387 314.224 994.009 314.053 995.886 313.712C997.763 313.371 998.958 313.115 999.47 312.944V324.72C998.275 324.891 996.227 325.317 993.326 326C990.425 326.683 985.646 327.024 978.99 327.024ZM1016.87 316.016C1016.87 311.237 1018.4 308.251 1021.47 307.056C1024.72 305.861 1028.64 305.264 1033.25 305.264C1037.86 305.264 1041.53 305.861 1044.26 307.056C1046.99 308.251 1048.35 311.237 1048.35 316.016C1048.35 319.259 1047.67 321.648 1046.31 323.184C1044.94 324.549 1043.06 325.488 1040.67 326C1038.46 326.341 1035.81 326.512 1032.74 326.512C1029.84 326.512 1027.19 326.341 1024.8 326C1022.41 325.488 1020.45 324.549 1018.91 323.184C1017.55 321.648 1016.87 319.259 1016.87 316.016ZM1058.49 326L1097.4 275.312L1066.68 233.328C1065.49 231.451 1064.21 229.659 1062.84 227.952C1061.65 226.075 1060.28 224.624 1058.74 223.6H1098.68L1120.95 253.808L1143.99 223.6H1167.29C1166.95 224.112 1166.35 224.795 1165.5 225.648C1164.81 226.501 1163.96 227.696 1162.94 229.232L1134.01 271.216L1174.46 326H1148.09C1143.65 326 1139.81 325.232 1136.57 323.696C1133.33 322.16 1130.42 319.685 1127.86 316.272L1108.92 290.928L1082.04 326H1058.49ZM1235.71 354.416C1226.67 354.416 1218.22 353.989 1210.37 353.136C1202.69 352.283 1196.46 350.917 1191.68 349.04C1186.9 347.333 1184.51 345.115 1184.51 342.384V333.168C1187.24 334.704 1191 335.984 1195.78 337.008C1200.56 338.032 1205.68 338.8 1211.14 339.312C1216.6 339.995 1221.72 340.336 1226.5 340.336C1234.69 340.336 1241.18 339.312 1245.95 337.264C1250.9 335.387 1254.4 332.315 1256.45 328.048C1258.67 323.781 1259.78 318.32 1259.78 311.664V300.4C1258.07 303.813 1255.6 306.544 1252.35 308.592C1249.11 310.64 1245.02 312.176 1240.07 313.2C1235.12 314.053 1229.14 314.48 1222.15 314.48C1210.71 314.48 1202.18 312.773 1196.55 309.36C1191.08 305.776 1187.5 300.827 1185.79 294.512C1184.09 288.197 1183.23 280.859 1183.23 272.496V235.888C1183.23 233.328 1183.4 231.195 1183.75 229.488C1184.26 227.611 1185.28 226.245 1186.82 225.392C1188.35 224.368 1190.83 223.856 1194.24 223.856H1214.98C1214.98 228.293 1214.98 232.304 1214.98 235.888C1214.98 239.301 1214.98 242.629 1214.98 245.872C1214.98 248.944 1214.98 252.272 1214.98 255.856C1214.98 259.269 1214.98 263.195 1214.98 267.632C1214.98 277.36 1215.83 284.528 1217.54 289.136C1219.42 293.573 1221.98 296.389 1225.22 297.584C1228.63 298.779 1232.64 299.376 1237.25 299.376C1241.86 299.376 1245.78 298.693 1249.03 297.328C1252.27 295.792 1254.74 292.891 1256.45 288.624C1258.33 284.357 1259.27 277.872 1259.27 269.168V223.856H1280.51C1284.1 223.856 1286.74 224.453 1288.45 225.648C1290.16 226.672 1291.01 229.403 1291.01 233.84V309.36C1291.01 324.72 1286.66 336.069 1277.95 343.408C1269.42 350.747 1255.34 354.416 1235.71 354.416ZM1344.78 309.104H1409.54L1410.06 316.016C1410.4 319.771 1409.63 322.416 1407.75 323.952C1406.05 325.317 1403.14 326 1399.05 326H1305.61V310.384L1365.77 240.752H1308.17V233.072C1308.17 230.171 1308.94 227.952 1310.47 226.416C1312.18 224.709 1314.23 223.856 1316.62 223.856H1408.01C1408.52 226.416 1408.18 229.232 1406.98 232.304C1405.79 235.376 1404.17 238.448 1402.12 241.52C1400.07 244.592 1397.85 247.408 1395.46 249.968L1344.78 309.104Z" fill="url(#paint1_linear_47_306)" fill-opacity="0.42"/>
<path d="M153.888 327.536C139.381 327.536 127.605 326.256 118.56 323.696C109.685 320.965 103.2 315.931 99.104 308.592C95.1787 301.253 93.216 290.587 93.216 276.592C93.216 261.744 95.1787 250.48 99.104 242.8C103.2 234.949 109.685 229.573 118.56 226.672C127.605 223.771 139.381 222.32 153.888 222.32C158.325 222.32 162.592 222.576 166.688 223.088C170.784 223.429 175.648 224.027 181.28 224.88C184.352 225.221 186.827 225.904 188.704 226.928C190.752 227.952 192.288 229.659 193.312 232.048C194.336 234.437 194.848 237.936 194.848 242.544C192.8 241.691 189.813 241.008 185.888 240.496C181.963 239.813 177.781 239.301 173.344 238.96C169.077 238.619 165.152 238.448 161.568 238.448C152.523 238.448 145.269 239.557 139.808 241.776C134.517 243.995 130.677 247.749 128.288 253.04C126.069 258.331 124.96 265.499 124.96 274.544C124.96 283.589 126.069 290.757 128.288 296.048C130.507 301.339 134.261 305.093 139.552 307.312C145.013 309.531 152.352 310.64 161.568 310.64C165.835 310.64 170.101 310.469 174.368 310.128C178.805 309.616 182.816 309.104 186.4 308.592C189.984 307.909 192.8 307.141 194.848 306.288V314.992C194.848 318.576 192.971 321.307 189.216 323.184C185.632 324.891 180.768 326 174.624 326.512C168.48 327.195 161.568 327.536 153.888 327.536ZM225.82 326C220.7 326 217.457 325.317 216.092 323.952C214.897 322.416 214.3 319.6 214.3 315.504V196.72H245.532V226.672C247.409 226.16 249.884 225.733 252.956 225.392C256.199 224.88 259.527 224.539 262.94 224.368C266.524 224.197 269.852 224.112 272.924 224.112C284.017 224.112 292.892 224.965 299.548 226.672C306.375 228.379 311.409 231.109 314.652 234.864C318.065 238.448 320.284 243.056 321.308 248.688C322.503 254.32 323.1 261.061 323.1 268.912V311.92C323.1 316.016 322.759 319.088 322.076 321.136C321.393 323.013 320.028 324.293 317.98 324.976C316.103 325.659 313.201 326 309.276 326H292.892V264.304C292.892 257.136 291.953 251.76 290.076 248.176C288.199 244.421 285.383 241.947 281.628 240.752C278.044 239.387 273.265 238.704 267.292 238.704C265.244 238.704 262.769 238.875 259.868 239.216C257.137 239.387 254.407 239.728 251.676 240.24C249.116 240.581 247.068 241.093 245.532 241.776V326H225.82ZM396.97 327.28C385.706 327.28 376.575 326.853 369.578 326C362.581 325.317 357.205 323.867 353.45 321.648C349.695 319.259 347.135 316.016 345.77 311.92C344.405 307.824 343.722 302.619 343.722 296.304C343.722 287.6 344.661 280.944 346.538 276.336C348.415 271.728 351.573 268.656 356.01 267.12C360.618 265.413 366.762 264.56 374.442 264.56C378.709 264.56 383.487 264.645 388.778 264.816C394.239 264.816 399.53 264.901 404.65 265.072C409.77 265.243 414.207 265.584 417.962 266.096C421.887 266.437 424.533 266.779 425.898 267.12C425.898 260.976 425.386 256.112 424.362 252.528C423.338 248.944 421.631 246.213 419.242 244.336C416.853 242.459 413.781 241.264 410.026 240.752C406.442 240.24 402.09 239.984 396.97 239.984C391.167 239.984 385.279 240.155 379.306 240.496C373.503 240.667 367.957 241.093 362.666 241.776C357.546 242.288 353.023 243.056 349.098 244.08V238.192C349.098 233.925 350.122 230.853 352.17 228.976C354.218 226.928 356.863 225.563 360.106 224.88C363.861 224.027 369.322 223.429 376.49 223.088C383.829 222.747 391.594 222.576 399.786 222.576C410.367 222.576 419.242 223.088 426.41 224.112C433.578 225.136 439.295 227.184 443.562 230.256C447.999 233.328 451.157 237.851 453.034 243.824C454.911 249.627 455.85 257.477 455.85 267.376V319.088C453.802 321.989 447.829 324.123 437.93 325.488C428.202 326.683 414.549 327.28 396.97 327.28ZM396.714 313.968C402.517 313.968 407.295 313.883 411.05 313.712C414.975 313.371 418.133 312.859 420.522 312.176C422.911 311.493 424.703 310.64 425.898 309.616V277.872C424.191 277.36 421.461 276.933 417.706 276.592C414.122 276.08 410.453 275.739 406.698 275.568C402.943 275.227 399.786 275.056 397.226 275.056C392.106 275.056 387.925 275.483 384.682 276.336C381.439 277.019 379.05 278.725 377.514 281.456C376.149 284.187 375.466 288.453 375.466 294.256C375.466 298.864 375.978 302.704 377.002 305.776C378.026 308.677 380.074 310.811 383.146 312.176C386.218 313.371 390.741 313.968 396.714 313.968ZM505.418 327.024C495.349 327.024 488.351 324.891 484.426 320.624C480.671 316.187 478.794 309.275 478.794 299.888V223.856H510.026V298.352C510.026 304.325 510.794 308.507 512.33 310.896C513.866 313.115 516.597 314.224 520.522 314.224C522.399 314.224 524.191 314.053 525.898 313.712C527.605 313.371 528.714 313.115 529.226 312.944V324.72C528.543 324.891 527.349 325.147 525.642 325.488C523.935 325.829 521.461 326.171 518.218 326.512C514.975 326.853 510.709 327.024 505.418 327.024ZM494.666 210.544C489.717 210.544 486.133 209.947 483.914 208.752C481.695 207.387 480.586 204.912 480.586 201.328C480.586 197.744 481.695 195.269 483.914 193.904C486.303 192.539 489.973 191.856 494.922 191.856C499.871 192.027 503.37 192.795 505.418 194.16C507.637 195.355 508.661 197.744 508.49 201.328C508.49 204.912 507.466 207.387 505.418 208.752C503.37 209.947 499.786 210.544 494.666 210.544ZM552.498 326C546.866 326 544.05 323.099 544.05 317.296V230.512C549.17 228.464 556.423 226.757 565.81 225.392C575.367 223.856 585.949 223.088 597.554 223.088C609.671 223.088 619.229 223.771 626.226 225.136C633.394 226.501 638.685 228.805 642.098 232.048C645.682 235.291 647.986 239.557 649.01 244.848C650.205 250.139 650.802 256.709 650.802 264.56V313.968C650.802 317.04 650.546 319.515 650.034 321.392C649.693 323.099 648.583 324.379 646.706 325.232C644.999 325.915 642.269 326.256 638.514 326.256L620.082 326V257.392C620.082 251.419 618.205 247.067 614.45 244.336C610.695 241.605 605.149 240.24 597.81 240.24C595.25 240.24 592.519 240.496 589.618 241.008C586.717 241.349 583.986 241.947 581.426 242.8C578.866 243.483 576.733 244.421 575.026 245.616V326H552.498ZM710.128 327.024C702.107 327.024 695.792 326.171 691.184 324.464C686.747 322.587 683.589 319.6 681.712 315.504C679.835 311.237 678.896 305.435 678.896 298.096V240.24H668.4V223.856H678.896V208.752C678.896 205.168 679.152 202.523 679.664 200.816C680.176 199.109 681.2 198 682.736 197.488C684.443 196.976 686.917 196.72 690.16 196.72H710.128C710.128 197.232 710.043 198.085 709.872 199.28C709.872 200.304 709.872 201.669 709.872 203.376V223.856H734.448V240.24H710.128V295.28C710.128 301.936 710.725 306.8 711.92 309.872C713.285 312.773 716.699 314.224 722.16 314.224C723.867 314.224 725.829 314.053 728.048 313.712C730.437 313.371 732.059 313.029 732.912 312.688V324.72C731.888 324.891 729.328 325.317 725.232 326C721.136 326.683 716.101 327.024 710.128 327.024ZM802.47 327.28C791.206 327.28 782.075 326.853 775.078 326C768.081 325.317 762.705 323.867 758.95 321.648C755.195 319.259 752.635 316.016 751.27 311.92C749.905 307.824 749.222 302.619 749.222 296.304C749.222 287.6 750.161 280.944 752.038 276.336C753.915 271.728 757.073 268.656 761.51 267.12C766.118 265.413 772.262 264.56 779.942 264.56C784.209 264.56 788.987 264.645 794.278 264.816C799.739 264.816 805.03 264.901 810.15 265.072C815.27 265.243 819.707 265.584 823.462 266.096C827.387 266.437 830.033 266.779 831.398 267.12C831.398 260.976 830.886 256.112 829.862 252.528C828.838 248.944 827.131 246.213 824.742 244.336C822.353 242.459 819.281 241.264 815.526 240.752C811.942 240.24 807.59 239.984 802.47 239.984C796.667 239.984 790.779 240.155 784.806 240.496C779.003 240.667 773.457 241.093 768.166 241.776C763.046 242.288 758.523 243.056 754.598 244.08V238.192C754.598 233.925 755.622 230.853 757.67 228.976C759.718 226.928 762.363 225.563 765.606 224.88C769.361 224.027 774.822 223.429 781.99 223.088C789.329 222.747 797.094 222.576 805.286 222.576C815.867 222.576 824.742 223.088 831.91 224.112C839.078 225.136 844.795 227.184 849.062 230.256C853.499 233.328 856.657 237.851 858.534 243.824C860.411 249.627 861.35 257.477 861.35 267.376V319.088C859.302 321.989 853.329 324.123 843.43 325.488C833.702 326.683 820.049 327.28 802.47 327.28ZM802.214 313.968C808.017 313.968 812.795 313.883 816.55 313.712C820.475 313.371 823.633 312.859 826.022 312.176C828.411 311.493 830.203 310.64 831.398 309.616V277.872C829.691 277.36 826.961 276.933 823.206 276.592C819.622 276.08 815.953 275.739 812.198 275.568C808.443 275.227 805.286 275.056 802.726 275.056C797.606 275.056 793.425 275.483 790.182 276.336C786.939 277.019 784.55 278.725 783.014 281.456C781.649 284.187 780.966 288.453 780.966 294.256C780.966 298.864 781.478 302.704 782.502 305.776C783.526 308.677 785.574 310.811 788.646 312.176C791.718 313.371 796.241 313.968 802.214 313.968ZM910.918 327.024C900.849 327.024 893.851 324.891 889.926 320.624C886.171 316.187 884.294 309.275 884.294 299.888V223.856H915.526V298.352C915.526 304.325 916.294 308.507 917.83 310.896C919.366 313.115 922.097 314.224 926.022 314.224C927.899 314.224 929.691 314.053 931.398 313.712C933.105 313.371 934.214 313.115 934.726 312.944V324.72C934.043 324.891 932.849 325.147 931.142 325.488C929.435 325.829 926.961 326.171 923.718 326.512C920.475 326.853 916.209 327.024 910.918 327.024ZM900.166 210.544C895.217 210.544 891.633 209.947 889.414 208.752C887.195 207.387 886.086 204.912 886.086 201.328C886.086 197.744 887.195 195.269 889.414 193.904C891.803 192.539 895.473 191.856 900.422 191.856C905.371 192.027 908.87 192.795 910.918 194.16C913.137 195.355 914.161 197.744 913.99 201.328C913.99 204.912 912.966 207.387 910.918 208.752C908.87 209.947 905.286 210.544 900.166 210.544ZM978.99 327.024C968.409 327.024 960.814 325.147 956.206 321.392C951.598 317.467 949.294 310.64 949.294 300.912V208.752C949.294 205.509 949.55 203.035 950.062 201.328C950.745 199.621 951.939 198.427 953.646 197.744C955.353 197.061 957.827 196.72 961.07 196.72H980.782C980.782 197.232 980.611 198.853 980.27 201.584C980.099 204.315 980.014 207.472 980.014 211.056V297.072C980.014 303.216 980.782 307.653 982.318 310.384C983.854 312.944 986.755 314.224 991.022 314.224C992.387 314.224 994.009 314.053 995.886 313.712C997.763 313.371 998.958 313.115 999.47 312.944V324.72C998.275 324.891 996.227 325.317 993.326 326C990.425 326.683 985.646 327.024 978.99 327.024ZM1016.87 316.016C1016.87 311.237 1018.4 308.251 1021.47 307.056C1024.72 305.861 1028.64 305.264 1033.25 305.264C1037.86 305.264 1041.53 305.861 1044.26 307.056C1046.99 308.251 1048.35 311.237 1048.35 316.016C1048.35 319.259 1047.67 321.648 1046.31 323.184C1044.94 324.549 1043.06 325.488 1040.67 326C1038.46 326.341 1035.81 326.512 1032.74 326.512C1029.84 326.512 1027.19 326.341 1024.8 326C1022.41 325.488 1020.45 324.549 1018.91 323.184C1017.55 321.648 1016.87 319.259 1016.87 316.016ZM1058.49 326L1097.4 275.312L1066.68 233.328C1065.49 231.451 1064.21 229.659 1062.84 227.952C1061.65 226.075 1060.28 224.624 1058.74 223.6H1098.68L1120.95 253.808L1143.99 223.6H1167.29C1166.95 224.112 1166.35 224.795 1165.5 225.648C1164.81 226.501 1163.96 227.696 1162.94 229.232L1134.01 271.216L1174.46 326H1148.09C1143.65 326 1139.81 325.232 1136.57 323.696C1133.33 322.16 1130.42 319.685 1127.86 316.272L1108.92 290.928L1082.04 326H1058.49ZM1235.71 354.416C1226.67 354.416 1218.22 353.989 1210.37 353.136C1202.69 352.283 1196.46 350.917 1191.68 349.04C1186.9 347.333 1184.51 345.115 1184.51 342.384V333.168C1187.24 334.704 1191 335.984 1195.78 337.008C1200.56 338.032 1205.68 338.8 1211.14 339.312C1216.6 339.995 1221.72 340.336 1226.5 340.336C1234.69 340.336 1241.18 339.312 1245.95 337.264C1250.9 335.387 1254.4 332.315 1256.45 328.048C1258.67 323.781 1259.78 318.32 1259.78 311.664V300.4C1258.07 303.813 1255.6 306.544 1252.35 308.592C1249.11 310.64 1245.02 312.176 1240.07 313.2C1235.12 314.053 1229.14 314.48 1222.15 314.48C1210.71 314.48 1202.18 312.773 1196.55 309.36C1191.08 305.776 1187.5 300.827 1185.79 294.512C1184.09 288.197 1183.23 280.859 1183.23 272.496V235.888C1183.23 233.328 1183.4 231.195 1183.75 229.488C1184.26 227.611 1185.28 226.245 1186.82 225.392C1188.35 224.368 1190.83 223.856 1194.24 223.856H1214.98C1214.98 228.293 1214.98 232.304 1214.98 235.888C1214.98 239.301 1214.98 242.629 1214.98 245.872C1214.98 248.944 1214.98 252.272 1214.98 255.856C1214.98 259.269 1214.98 263.195 1214.98 267.632C1214.98 277.36 1215.83 284.528 1217.54 289.136C1219.42 293.573 1221.98 296.389 1225.22 297.584C1228.63 298.779 1232.64 299.376 1237.25 299.376C1241.86 299.376 1245.78 298.693 1249.03 297.328C1252.27 295.792 1254.74 292.891 1256.45 288.624C1258.33 284.357 1259.27 277.872 1259.27 269.168V223.856H1280.51C1284.1 223.856 1286.74 224.453 1288.45 225.648C1290.16 226.672 1291.01 229.403 1291.01 233.84V309.36C1291.01 324.72 1286.66 336.069 1277.95 343.408C1269.42 350.747 1255.34 354.416 1235.71 354.416ZM1344.78 309.104H1409.54L1410.06 316.016C1410.4 319.771 1409.63 322.416 1407.75 323.952C1406.05 325.317 1403.14 326 1399.05 326H1305.61V310.384L1365.77 240.752H1308.17V233.072C1308.17 230.171 1308.94 227.952 1310.47 226.416C1312.18 224.709 1314.23 223.856 1316.62 223.856H1408.01C1408.52 226.416 1408.18 229.232 1406.98 232.304C1405.79 235.376 1404.17 238.448 1402.12 241.52C1400.07 244.592 1397.85 247.408 1395.46 249.968L1344.78 309.104Z" fill="url(#paint2_linear_47_306)" fill-opacity="0.5"/>
<path d="M153.888 327.536C139.381 327.536 127.605 326.256 118.56 323.696C109.685 320.965 103.2 315.931 99.104 308.592C95.1787 301.253 93.216 290.587 93.216 276.592C93.216 261.744 95.1787 250.48 99.104 242.8C103.2 234.949 109.685 229.573 118.56 226.672C127.605 223.771 139.381 222.32 153.888 222.32C158.325 222.32 162.592 222.576 166.688 223.088C170.784 223.429 175.648 224.027 181.28 224.88C184.352 225.221 186.827 225.904 188.704 226.928C190.752 227.952 192.288 229.659 193.312 232.048C194.336 234.437 194.848 237.936 194.848 242.544C192.8 241.691 189.813 241.008 185.888 240.496C181.963 239.813 177.781 239.301 173.344 238.96C169.077 238.619 165.152 238.448 161.568 238.448C152.523 238.448 145.269 239.557 139.808 241.776C134.517 243.995 130.677 247.749 128.288 253.04C126.069 258.331 124.96 265.499 124.96 274.544C124.96 283.589 126.069 290.757 128.288 296.048C130.507 301.339 134.261 305.093 139.552 307.312C145.013 309.531 152.352 310.64 161.568 310.64C165.835 310.64 170.101 310.469 174.368 310.128C178.805 309.616 182.816 309.104 186.4 308.592C189.984 307.909 192.8 307.141 194.848 306.288V314.992C194.848 318.576 192.971 321.307 189.216 323.184C185.632 324.891 180.768 326 174.624 326.512C168.48 327.195 161.568 327.536 153.888 327.536ZM225.82 326C220.7 326 217.457 325.317 216.092 323.952C214.897 322.416 214.3 319.6 214.3 315.504V196.72H245.532V226.672C247.409 226.16 249.884 225.733 252.956 225.392C256.199 224.88 259.527 224.539 262.94 224.368C266.524 224.197 269.852 224.112 272.924 224.112C284.017 224.112 292.892 224.965 299.548 226.672C306.375 228.379 311.409 231.109 314.652 234.864C318.065 238.448 320.284 243.056 321.308 248.688C322.503 254.32 323.1 261.061 323.1 268.912V311.92C323.1 316.016 322.759 319.088 322.076 321.136C321.393 323.013 320.028 324.293 317.98 324.976C316.103 325.659 313.201 326 309.276 326H292.892V264.304C292.892 257.136 291.953 251.76 290.076 248.176C288.199 244.421 285.383 241.947 281.628 240.752C278.044 239.387 273.265 238.704 267.292 238.704C265.244 238.704 262.769 238.875 259.868 239.216C257.137 239.387 254.407 239.728 251.676 240.24C249.116 240.581 247.068 241.093 245.532 241.776V326H225.82ZM396.97 327.28C385.706 327.28 376.575 326.853 369.578 326C362.581 325.317 357.205 323.867 353.45 321.648C349.695 319.259 347.135 316.016 345.77 311.92C344.405 307.824 343.722 302.619 343.722 296.304C343.722 287.6 344.661 280.944 346.538 276.336C348.415 271.728 351.573 268.656 356.01 267.12C360.618 265.413 366.762 264.56 374.442 264.56C378.709 264.56 383.487 264.645 388.778 264.816C394.239 264.816 399.53 264.901 404.65 265.072C409.77 265.243 414.207 265.584 417.962 266.096C421.887 266.437 424.533 266.779 425.898 267.12C425.898 260.976 425.386 256.112 424.362 252.528C423.338 248.944 421.631 246.213 419.242 244.336C416.853 242.459 413.781 241.264 410.026 240.752C406.442 240.24 402.09 239.984 396.97 239.984C391.167 239.984 385.279 240.155 379.306 240.496C373.503 240.667 367.957 241.093 362.666 241.776C357.546 242.288 353.023 243.056 349.098 244.08V238.192C349.098 233.925 350.122 230.853 352.17 228.976C354.218 226.928 356.863 225.563 360.106 224.88C363.861 224.027 369.322 223.429 376.49 223.088C383.829 222.747 391.594 222.576 399.786 222.576C410.367 222.576 419.242 223.088 426.41 224.112C433.578 225.136 439.295 227.184 443.562 230.256C447.999 233.328 451.157 237.851 453.034 243.824C454.911 249.627 455.85 257.477 455.85 267.376V319.088C453.802 321.989 447.829 324.123 437.93 325.488C428.202 326.683 414.549 327.28 396.97 327.28ZM396.714 313.968C402.517 313.968 407.295 313.883 411.05 313.712C414.975 313.371 418.133 312.859 420.522 312.176C422.911 311.493 424.703 310.64 425.898 309.616V277.872C424.191 277.36 421.461 276.933 417.706 276.592C414.122 276.08 410.453 275.739 406.698 275.568C402.943 275.227 399.786 275.056 397.226 275.056C392.106 275.056 387.925 275.483 384.682 276.336C381.439 277.019 379.05 278.725 377.514 281.456C376.149 284.187 375.466 288.453 375.466 294.256C375.466 298.864 375.978 302.704 377.002 305.776C378.026 308.677 380.074 310.811 383.146 312.176C386.218 313.371 390.741 313.968 396.714 313.968ZM505.418 327.024C495.349 327.024 488.351 324.891 484.426 320.624C480.671 316.187 478.794 309.275 478.794 299.888V223.856H510.026V298.352C510.026 304.325 510.794 308.507 512.33 310.896C513.866 313.115 516.597 314.224 520.522 314.224C522.399 314.224 524.191 314.053 525.898 313.712C527.605 313.371 528.714 313.115 529.226 312.944V324.72C528.543 324.891 527.349 325.147 525.642 325.488C523.935 325.829 521.461 326.171 518.218 326.512C514.975 326.853 510.709 327.024 505.418 327.024ZM494.666 210.544C489.717 210.544 486.133 209.947 483.914 208.752C481.695 207.387 480.586 204.912 480.586 201.328C480.586 197.744 481.695 195.269 483.914 193.904C486.303 192.539 489.973 191.856 494.922 191.856C499.871 192.027 503.37 192.795 505.418 194.16C507.637 195.355 508.661 197.744 508.49 201.328C508.49 204.912 507.466 207.387 505.418 208.752C503.37 209.947 499.786 210.544 494.666 210.544ZM552.498 326C546.866 326 544.05 323.099 544.05 317.296V230.512C549.17 228.464 556.423 226.757 565.81 225.392C575.367 223.856 585.949 223.088 597.554 223.088C609.671 223.088 619.229 223.771 626.226 225.136C633.394 226.501 638.685 228.805 642.098 232.048C645.682 235.291 647.986 239.557 649.01 244.848C650.205 250.139 650.802 256.709 650.802 264.56V313.968C650.802 317.04 650.546 319.515 650.034 321.392C649.693 323.099 648.583 324.379 646.706 325.232C644.999 325.915 642.269 326.256 638.514 326.256L620.082 326V257.392C620.082 251.419 618.205 247.067 614.45 244.336C610.695 241.605 605.149 240.24 597.81 240.24C595.25 240.24 592.519 240.496 589.618 241.008C586.717 241.349 583.986 241.947 581.426 242.8C578.866 243.483 576.733 244.421 575.026 245.616V326H552.498ZM710.128 327.024C702.107 327.024 695.792 326.171 691.184 324.464C686.747 322.587 683.589 319.6 681.712 315.504C679.835 311.237 678.896 305.435 678.896 298.096V240.24H668.4V223.856H678.896V208.752C678.896 205.168 679.152 202.523 679.664 200.816C680.176 199.109 681.2 198 682.736 197.488C684.443 196.976 686.917 196.72 690.16 196.72H710.128C710.128 197.232 710.043 198.085 709.872 199.28C709.872 200.304 709.872 201.669 709.872 203.376V223.856H734.448V240.24H710.128V295.28C710.128 301.936 710.725 306.8 711.92 309.872C713.285 312.773 716.699 314.224 722.16 314.224C723.867 314.224 725.829 314.053 728.048 313.712C730.437 313.371 732.059 313.029 732.912 312.688V324.72C731.888 324.891 729.328 325.317 725.232 326C721.136 326.683 716.101 327.024 710.128 327.024ZM802.47 327.28C791.206 327.28 782.075 326.853 775.078 326C768.081 325.317 762.705 323.867 758.95 321.648C755.195 319.259 752.635 316.016 751.27 311.92C749.905 307.824 749.222 302.619 749.222 296.304C749.222 287.6 750.161 280.944 752.038 276.336C753.915 271.728 757.073 268.656 761.51 267.12C766.118 265.413 772.262 264.56 779.942 264.56C784.209 264.56 788.987 264.645 794.278 264.816C799.739 264.816 805.03 264.901 810.15 265.072C815.27 265.243 819.707 265.584 823.462 266.096C827.387 266.437 830.033 266.779 831.398 267.12C831.398 260.976 830.886 256.112 829.862 252.528C828.838 248.944 827.131 246.213 824.742 244.336C822.353 242.459 819.281 241.264 815.526 240.752C811.942 240.24 807.59 239.984 802.47 239.984C796.667 239.984 790.779 240.155 784.806 240.496C779.003 240.667 773.457 241.093 768.166 241.776C763.046 242.288 758.523 243.056 754.598 244.08V238.192C754.598 233.925 755.622 230.853 757.67 228.976C759.718 226.928 762.363 225.563 765.606 224.88C769.361 224.027 774.822 223.429 781.99 223.088C789.329 222.747 797.094 222.576 805.286 222.576C815.867 222.576 824.742 223.088 831.91 224.112C839.078 225.136 844.795 227.184 849.062 230.256C853.499 233.328 856.657 237.851 858.534 243.824C860.411 249.627 861.35 257.477 861.35 267.376V319.088C859.302 321.989 853.329 324.123 843.43 325.488C833.702 326.683 820.049 327.28 802.47 327.28ZM802.214 313.968C808.017 313.968 812.795 313.883 816.55 313.712C820.475 313.371 823.633 312.859 826.022 312.176C828.411 311.493 830.203 310.64 831.398 309.616V277.872C829.691 277.36 826.961 276.933 823.206 276.592C819.622 276.08 815.953 275.739 812.198 275.568C808.443 275.227 805.286 275.056 802.726 275.056C797.606 275.056 793.425 275.483 790.182 276.336C786.939 277.019 784.55 278.725 783.014 281.456C781.649 284.187 780.966 288.453 780.966 294.256C780.966 298.864 781.478 302.704 782.502 305.776C783.526 308.677 785.574 310.811 788.646 312.176C791.718 313.371 796.241 313.968 802.214 313.968ZM910.918 327.024C900.849 327.024 893.851 324.891 889.926 320.624C886.171 316.187 884.294 309.275 884.294 299.888V223.856H915.526V298.352C915.526 304.325 916.294 308.507 917.83 310.896C919.366 313.115 922.097 314.224 926.022 314.224C927.899 314.224 929.691 314.053 931.398 313.712C933.105 313.371 934.214 313.115 934.726 312.944V324.72C934.043 324.891 932.849 325.147 931.142 325.488C929.435 325.829 926.961 326.171 923.718 326.512C920.475 326.853 916.209 327.024 910.918 327.024ZM900.166 210.544C895.217 210.544 891.633 209.947 889.414 208.752C887.195 207.387 886.086 204.912 886.086 201.328C886.086 197.744 887.195 195.269 889.414 193.904C891.803 192.539 895.473 191.856 900.422 191.856C905.371 192.027 908.87 192.795 910.918 194.16C913.137 195.355 914.161 197.744 913.99 201.328C913.99 204.912 912.966 207.387 910.918 208.752C908.87 209.947 905.286 210.544 900.166 210.544ZM978.99 327.024C968.409 327.024 960.814 325.147 956.206 321.392C951.598 317.467 949.294 310.64 949.294 300.912V208.752C949.294 205.509 949.55 203.035 950.062 201.328C950.745 199.621 951.939 198.427 953.646 197.744C955.353 197.061 957.827 196.72 961.07 196.72H980.782C980.782 197.232 980.611 198.853 980.27 201.584C980.099 204.315 980.014 207.472 980.014 211.056V297.072C980.014 303.216 980.782 307.653 982.318 310.384C983.854 312.944 986.755 314.224 991.022 314.224C992.387 314.224 994.009 314.053 995.886 313.712C997.763 313.371 998.958 313.115 999.47 312.944V324.72C998.275 324.891 996.227 325.317 993.326 326C990.425 326.683 985.646 327.024 978.99 327.024ZM1016.87 316.016C1016.87 311.237 1018.4 308.251 1021.47 307.056C1024.72 305.861 1028.64 305.264 1033.25 305.264C1037.86 305.264 1041.53 305.861 1044.26 307.056C1046.99 308.251 1048.35 311.237 1048.35 316.016C1048.35 319.259 1047.67 321.648 1046.31 323.184C1044.94 324.549 1043.06 325.488 1040.67 326C1038.46 326.341 1035.81 326.512 1032.74 326.512C1029.84 326.512 1027.19 326.341 1024.8 326C1022.41 325.488 1020.45 324.549 1018.91 323.184C1017.55 321.648 1016.87 319.259 1016.87 316.016ZM1058.49 326L1097.4 275.312L1066.68 233.328C1065.49 231.451 1064.21 229.659 1062.84 227.952C1061.65 226.075 1060.28 224.624 1058.74 223.6H1098.68L1120.95 253.808L1143.99 223.6H1167.29C1166.95 224.112 1166.35 224.795 1165.5 225.648C1164.81 226.501 1163.96 227.696 1162.94 229.232L1134.01 271.216L1174.46 326H1148.09C1143.65 326 1139.81 325.232 1136.57 323.696C1133.33 322.16 1130.42 319.685 1127.86 316.272L1108.92 290.928L1082.04 326H1058.49ZM1235.71 354.416C1226.67 354.416 1218.22 353.989 1210.37 353.136C1202.69 352.283 1196.46 350.917 1191.68 349.04C1186.9 347.333 1184.51 345.115 1184.51 342.384V333.168C1187.24 334.704 1191 335.984 1195.78 337.008C1200.56 338.032 1205.68 338.8 1211.14 339.312C1216.6 339.995 1221.72 340.336 1226.5 340.336C1234.69 340.336 1241.18 339.312 1245.95 337.264C1250.9 335.387 1254.4 332.315 1256.45 328.048C1258.67 323.781 1259.78 318.32 1259.78 311.664V300.4C1258.07 303.813 1255.6 306.544 1252.35 308.592C1249.11 310.64 1245.02 312.176 1240.07 313.2C1235.12 314.053 1229.14 314.48 1222.15 314.48C1210.71 314.48 1202.18 312.773 1196.55 309.36C1191.08 305.776 1187.5 300.827 1185.79 294.512C1184.09 288.197 1183.23 280.859 1183.23 272.496V235.888C1183.23 233.328 1183.4 231.195 1183.75 229.488C1184.26 227.611 1185.28 226.245 1186.82 225.392C1188.35 224.368 1190.83 223.856 1194.24 223.856H1214.98C1214.98 228.293 1214.98 232.304 1214.98 235.888C1214.98 239.301 1214.98 242.629 1214.98 245.872C1214.98 248.944 1214.98 252.272 1214.98 255.856C1214.98 259.269 1214.98 263.195 1214.98 267.632C1214.98 277.36 1215.83 284.528 1217.54 289.136C1219.42 293.573 1221.98 296.389 1225.22 297.584C1228.63 298.779 1232.64 299.376 1237.25 299.376C1241.86 299.376 1245.78 298.693 1249.03 297.328C1252.27 295.792 1254.74 292.891 1256.45 288.624C1258.33 284.357 1259.27 277.872 1259.27 269.168V223.856H1280.51C1284.1 223.856 1286.74 224.453 1288.45 225.648C1290.16 226.672 1291.01 229.403 1291.01 233.84V309.36C1291.01 324.72 1286.66 336.069 1277.95 343.408C1269.42 350.747 1255.34 354.416 1235.71 354.416ZM1344.78 309.104H1409.54L1410.06 316.016C1410.4 319.771 1409.63 322.416 1407.75 323.952C1406.05 325.317 1403.14 326 1399.05 326H1305.61V310.384L1365.77 240.752H1308.17V233.072C1308.17 230.171 1308.94 227.952 1310.47 226.416C1312.18 224.709 1314.23 223.856 1316.62 223.856H1408.01C1408.52 226.416 1408.18 229.232 1406.98 232.304C1405.79 235.376 1404.17 238.448 1402.12 241.52C1400.07 244.592 1397.85 247.408 1395.46 249.968L1344.78 309.104Z" fill="url(#paint3_linear_47_306)" fill-opacity="0.36"/>
<defs>
<linearGradient id="paint0_linear_47_306" x1="144.986" y1="298.424" x2="317.622" y2="-128.692" gradientUnits="userSpaceOnUse">
<stop offset="0.356663" stop-color="#441177"/>
<stop offset="0.71874" stop-color="#661188"/>
<stop offset="1" stop-color="#852388"/>
</linearGradient>
<linearGradient id="paint1_linear_47_306" x1="703.492" y1="195.684" x2="1261.31" y2="383.5" gradientUnits="userSpaceOnUse">
<stop offset="0.0638507" stop-color="#420D75"/>
<stop offset="0.340111" stop-color="#6B1483"/>
<stop offset="0.557964" stop-color="#852388"/>
</linearGradient>
<linearGradient id="paint2_linear_47_306" x1="404.981" y1="187.122" x2="557.345" y2="501.239" gradientUnits="userSpaceOnUse">
<stop offset="0.126749" stop-color="#410C76"/>
<stop offset="0.377335" stop-color="#520E7B"/>
<stop offset="0.805613" stop-color="#5F1282"/>
<stop offset="1" stop-color="#842292"/>
</linearGradient>
<linearGradient id="paint3_linear_47_306" x1="152.476" y1="228.707" x2="503.262" y2="867.762" gradientUnits="userSpaceOnUse">
<stop offset="0.102462" stop-color="#410C76"/>
<stop offset="0.2683" stop-color="#520E7B"/>
<stop offset="0.614212" stop-color="#5F1282"/>
<stop offset="0.684463" stop-color="#842292"/>
</linearGradient>
</defs>
</svg>
