<?xml version="1.0" standalone="no"?>
<!DOCTYPE svg PUBLIC "-//W3C//DTD SVG 20010904//EN"
 "http://www.w3.org/TR/2001/REC-SVG-20010904/DTD/svg10.dtd">
<svg version="1.0" xmlns="http://www.w3.org/2000/svg"
 width="700.000000pt" height="700.000000pt" viewBox="0 0 700.000000 700.000000"
 preserveAspectRatio="xMidYMid meet">
<metadata>
Created by potrace 1.14, written by Peter Selinger 2001-2017
</metadata>
<g transform="translate(0.000000,700.000000) scale(0.100000,-0.100000)"
fill="#000000" stroke="none">
<path d="M407 6030 c-49 -39 -65 -181 -61 -551 2 -232 7 -362 19 -519 2 -30 7
-98 10 -150 3 -52 8 -111 10 -130 2 -19 7 -73 10 -120 4 -47 8 -101 10 -120
13 -142 17 -188 20 -210 2 -14 6 -52 10 -85 13 -134 36 -331 40 -351 3 -12 7
-39 11 -60 40 -269 159 -499 444 -864 52 -67 102 -131 112 -143 9 -12 19 -19
23 -16 3 4 15 43 25 88 74 306 335 738 591 975 143 132 337 228 508 250 114
15 340 13 430 -4 180 -33 493 -203 753 -410 62 -50 120 -90 130 -90 13 0 126
84 148 110 13 16 185 134 270 186 111 67 288 153 379 183 141 48 490 48 633 1
214 -72 365 -181 540 -390 203 -242 397 -603 438 -816 17 -87 25 -96 53 -59
12 17 49 64 82 105 294 363 420 604 469 892 15 83 48 366 61 508 3 36 7 76 10
90 2 14 7 63 10 110 3 47 8 103 10 125 5 47 12 134 21 265 3 52 8 111 10 130
20 210 24 822 5 939 -14 91 -28 121 -64 141 -26 14 -30 13 -83 -15 -117 -63
-313 -286 -553 -631 -186 -267 -252 -342 -364 -415 -103 -67 -204 -92 -367
-91 -135 1 -322 31 -602 97 -105 25 -200 47 -212 49 -11 3 -82 19 -156 36
-563 129 -915 128 -1495 -4 -570 -130 -634 -144 -735 -160 -261 -42 -452 -18
-594 77 -105 70 -174 150 -361 417 -251 360 -438 571 -562 634 -41 21 -55 20
-86 -4z m640 -1373 c51 -53 133 -111 198 -141 101 -46 183 -62 375 -71 69 -4
131 -10 138 -14 9 -5 -9 -22 -55 -53 -155 -104 -365 -323 -468 -487 l-39 -64
-31 65 c-86 184 -170 438 -190 574 -3 21 -10 64 -15 94 -5 30 -11 96 -15 145
l-6 90 30 -44 c16 -24 51 -67 78 -94z m5009 61 c-19 -217 -42 -340 -97 -508
-37 -111 -100 -273 -132 -336 l-23 -45 -62 93 c-64 96 -81 118 -186 229 -89
95 -180 174 -259 227 -83 56 -81 58 99 67 71 4 131 8 134 10 3 2 30 6 60 10
154 19 351 146 438 282 15 24 29 43 31 43 1 0 0 -33 -3 -72z"/>
<path d="M2130 3499 c-222 -24 -397 -179 -472 -419 -20 -65 -23 -95 -23 -225
1 -134 4 -159 28 -240 54 -176 128 -303 246 -422 102 -102 192 -155 338 -199
75 -23 107 -27 218 -27 92 -1 149 4 195 16 271 71 469 243 539 467 63 204 45
436 -44 575 -108 168 -433 396 -651 456 -85 23 -249 31 -374 18z m466 -568
c68 -32 128 -95 151 -158 8 -21 15 -70 15 -108 1 -57 -4 -81 -26 -128 -67
-141 -210 -214 -338 -172 -197 64 -283 297 -171 463 36 52 71 79 142 108 80
33 150 32 227 -5z"/>
<path d="M4575 3498 c-80 -11 -143 -32 -247 -84 -223 -111 -440 -297 -511
-439 -80 -159 -64 -472 33 -639 87 -151 250 -278 430 -336 80 -26 110 -30 225
-35 387 -15 715 242 832 652 37 130 43 309 14 423 -61 247 -237 426 -446 455
-78 10 -264 13 -330 3z m86 -573 c223 -113 211 -434 -20 -546 -101 -50 -223
-25 -310 64 -122 123 -128 318 -13 430 37 36 112 75 167 87 42 9 120 -7 176
-35z"/>
<path d="M767 2683 c26 -49 62 -115 79 -148 18 -33 49 -91 70 -130 20 -38 56
-105 80 -147 24 -43 44 -79 44 -81 0 -2 -30 -7 -67 -11 -184 -17 -298 -37
-297 -51 1 -10 1137 -585 1260 -638 37 -16 68 -26 71 -23 10 10 -10 49 -73
141 -55 83 -172 237 -240 315 -165 192 -299 340 -442 487 -34 35 -60 68 -57
72 2 5 36 3 74 -4 39 -6 75 -9 81 -5 29 18 -80 159 -152 196 -15 8 -61 19
-100 24 -89 12 -84 11 -237 54 -69 20 -129 36 -133 36 -4 0 13 -39 39 -87z"/>
<path d="M6140 2735 c-125 -37 -190 -52 -261 -59 -61 -6 -98 -26 -156 -84 -59
-60 -93 -120 -74 -131 6 -4 43 -2 82 4 38 7 72 8 75 4 3 -5 -28 -42 -68 -82
-40 -40 -111 -116 -158 -168 -47 -51 -87 -96 -90 -99 -3 -3 -37 -41 -75 -85
-38 -44 -75 -86 -82 -93 -40 -41 -211 -263 -272 -353 -71 -106 -84 -139 -57
-139 23 0 1321 654 1321 665 -1 14 -94 31 -307 54 l-58 6 13 25 c7 14 63 117
124 230 61 113 127 235 147 273 21 39 31 67 23 67 -6 -1 -64 -16 -127 -35z"/>
<path d="M3392 1909 c-147 -28 -298 -202 -320 -368 -14 -100 -6 -231 19 -303
38 -113 132 -211 249 -259 69 -28 201 -34 280 -13 112 30 223 121 271 224 45
96 58 301 25 414 -37 125 -160 260 -270 296 -47 15 -193 20 -254 9z"/>
</g>
</svg>
